<svg width="384" height="209" viewBox="0 0 384 209" fill="none" xmlns="http://www.w3.org/2000/svg">
<g clip-path="url(#clip0_721_24)">
<path d="M360.207 178.271C360.207 184.449 365.222 189.457 371.409 189.457C377.595 189.457 382.61 184.449 382.61 178.271C382.61 172.094 377.595 167.086 371.409 167.086C365.222 167.086 360.207 172.094 360.207 178.271Z" fill="#FFE031"/>
<path d="M300.168 178.271C300.168 172.109 305.171 167.086 311.37 167.086C317.54 167.086 322.571 172.082 322.571 178.271C322.571 184.433 317.568 189.457 311.37 189.457C305.199 189.457 300.168 184.433 300.168 178.271Z" stroke="#FFE031" stroke-miterlimit="10"/>
<path d="M240.129 178.271C240.129 184.449 245.144 189.457 251.33 189.457C257.517 189.457 262.532 184.449 262.532 178.271C262.532 172.094 257.517 167.086 251.33 167.086C245.144 167.086 240.129 172.094 240.129 178.271Z" fill="#FFE031"/>
<path d="M180.09 178.271C180.09 184.449 185.105 189.457 191.291 189.457C197.478 189.457 202.493 184.449 202.493 178.271C202.493 172.094 197.478 167.086 191.291 167.086C185.105 167.086 180.09 172.094 180.09 178.271Z" fill="#FFE031"/>
<path d="M120.078 178.271C120.078 172.109 125.081 167.086 131.28 167.086C137.45 167.086 142.481 172.082 142.481 178.271C142.481 184.433 137.478 189.457 131.28 189.457C125.081 189.457 120.078 184.433 120.078 178.271Z" fill="#FFE031"/>
<path d="M60.0116 178.271C60.0116 184.449 65.0268 189.457 71.2133 189.457C77.3999 189.457 82.415 184.449 82.415 178.271C82.415 172.094 77.3999 167.086 71.2133 167.086C65.0268 167.086 60.0116 172.094 60.0116 178.271Z" stroke="#FFE031" stroke-miterlimit="10"/>
<path d="M-0.0275273 178.271C-0.0275276 184.449 4.98767 189.457 11.1742 189.457C17.3608 189.457 22.376 184.449 22.376 178.271C22.376 172.094 17.3608 167.086 11.1742 167.086C4.98767 167.086 -0.0275271 172.094 -0.0275273 178.271Z" fill="#FFE031"/>
<path d="M360.207 123.039C360.207 129.216 365.222 134.224 371.409 134.224C377.595 134.224 382.61 129.216 382.61 123.039C382.61 116.861 377.595 111.853 371.409 111.853C365.222 111.853 360.207 116.861 360.207 123.039Z" fill="#FFE031"/>
<path d="M300.168 123.039C300.168 116.877 305.171 111.853 311.37 111.853C317.54 111.853 322.571 116.849 322.571 123.039C322.571 129.228 317.568 134.224 311.37 134.224C305.199 134.224 300.168 129.228 300.168 123.039Z" fill="#FFE031"/>
<path d="M240.129 123.039C240.129 129.216 245.144 134.224 251.33 134.224C257.517 134.224 262.532 129.216 262.532 123.039C262.532 116.861 257.517 111.853 251.33 111.853C245.144 111.853 240.129 116.861 240.129 123.039Z" fill="#FFE031"/>
<path d="M180.09 123.039C180.09 129.216 185.105 134.224 191.291 134.224C197.478 134.224 202.493 129.216 202.493 123.039C202.493 116.861 197.478 111.853 191.291 111.853C185.105 111.853 180.09 116.861 180.09 123.039Z" fill="#FFE031"/>
<path d="M120.078 123.039C120.078 116.877 125.081 111.853 131.28 111.853C137.45 111.853 142.481 116.849 142.481 123.039C142.481 129.228 137.478 134.224 131.28 134.224C125.081 134.224 120.078 129.228 120.078 123.039Z" fill="#1D262D"/>
<path d="M60.0116 123.038C60.0116 129.216 65.0268 134.224 71.2133 134.224C77.3999 134.224 82.415 129.216 82.415 123.038C82.415 116.861 77.3999 111.853 71.2133 111.853C65.0268 111.853 60.0116 116.861 60.0116 123.038Z" fill="#FFE031"/>
<path d="M-0.0275273 123.038C-0.0275276 129.216 4.98767 134.224 11.1742 134.224C17.3608 134.224 22.376 129.216 22.376 123.038C22.376 116.861 17.3608 111.853 11.1742 111.853C4.98767 111.853 -0.0275271 116.861 -0.0275273 123.038Z" fill="#FFE031"/>
<path d="M360.207 67.8059C360.207 73.9835 365.222 78.9914 371.409 78.9914C377.595 78.9914 382.61 73.9835 382.61 67.8059C382.61 61.6283 377.595 56.6204 371.409 56.6204C365.222 56.6204 360.207 61.6283 360.207 67.8059Z" fill="#FFE031"/>
<path d="M300.168 67.8059C300.168 61.6441 305.171 56.6204 311.37 56.6204C317.54 56.6204 322.571 61.6164 322.571 67.8059C322.571 73.9954 317.568 78.9914 311.37 78.9914C305.199 78.9914 300.168 73.9954 300.168 67.8059Z" fill="#1D262D"/>
<path d="M240.129 67.8059C240.129 73.9835 245.144 78.9914 251.33 78.9914C257.517 78.9914 262.532 73.9835 262.532 67.8059C262.532 61.6283 257.517 56.6204 251.33 56.6204C245.144 56.6204 240.129 61.6283 240.129 67.8059Z" fill="#FFE031"/>
<path d="M180.09 67.8059C180.09 73.9835 185.105 78.9914 191.291 78.9914C197.478 78.9914 202.493 73.9835 202.493 67.8059C202.493 61.6283 197.478 56.6204 191.291 56.6204C185.105 56.6204 180.09 61.6283 180.09 67.8059Z" stroke="#FFE031" stroke-miterlimit="10"/>
<path d="M120.078 67.8059C120.078 61.6441 125.081 56.6204 131.28 56.6204C137.45 56.6204 142.481 61.6164 142.481 67.8059C142.481 73.9954 137.478 78.9914 131.28 78.9914C125.081 78.9914 120.078 73.9954 120.078 67.8059Z" fill="#FFE031"/>
<path d="M60.0116 67.8059C60.0116 73.9835 65.0268 78.9914 71.2133 78.9914C77.3999 78.9914 82.415 73.9835 82.415 67.8059C82.415 61.6283 77.3999 56.6204 71.2133 56.6204C65.0268 56.6204 60.0116 61.6283 60.0116 67.8059Z" fill="#1A3954"/>
<path d="M-0.0275273 67.8059C-0.0275276 73.9835 4.98767 78.9914 11.1742 78.9914C17.3608 78.9914 22.376 73.9835 22.376 67.8059C22.376 61.6283 17.3608 56.6204 11.1742 56.6204C4.98767 56.6204 -0.0275271 61.6283 -0.0275273 67.8059Z" fill="#1A3954"/>
<path d="M360.207 12.5732C360.207 18.7508 365.222 23.7587 371.409 23.7587C377.595 23.7587 382.61 18.7508 382.61 12.5732C382.61 6.39563 377.595 1.3877 371.409 1.38769C365.222 1.38769 360.207 6.39563 360.207 12.5732Z" stroke="#1A3954" stroke-miterlimit="10"/>
<path d="M300.168 12.5732C300.168 6.41147 305.171 1.38769 311.37 1.38769C317.54 1.3877 322.571 6.38371 322.571 12.5732C322.571 18.735 317.568 23.7587 311.37 23.7587C305.199 23.7587 300.168 18.735 300.168 12.5732Z" fill="#1A3954"/>
<path d="M240.129 12.5732C240.129 18.7508 245.144 23.7587 251.33 23.7587C257.517 23.7587 262.532 18.7508 262.532 12.5732C262.532 6.39563 257.517 1.3877 251.33 1.38769C245.144 1.38769 240.129 6.39563 240.129 12.5732Z" fill="#1A3954"/>
<path d="M180.09 12.5732C180.09 18.7508 185.105 23.7587 191.291 23.7587C197.478 23.7587 202.493 18.7508 202.493 12.5732C202.493 6.39563 197.478 1.3877 191.291 1.38769C185.105 1.38769 180.09 6.39563 180.09 12.5732Z" fill="#1A3954"/>
<path d="M120.078 12.5732C120.078 6.41147 125.081 1.38769 131.28 1.38769C137.45 1.3877 142.481 6.38371 142.481 12.5732C142.481 18.735 137.478 23.7587 131.28 23.7587C125.081 23.7587 120.078 18.735 120.078 12.5732Z" fill="#1A3954"/>
<path d="M60.0116 12.5732C60.0116 18.7508 65.0268 23.7587 71.2133 23.7587C77.3999 23.7587 82.415 18.7508 82.415 12.5732C82.415 6.39563 77.3999 1.3877 71.2133 1.38769C65.0268 1.38769 60.0116 6.39563 60.0116 12.5732Z" fill="#1A3954"/>
<path d="M-0.0274968 12.5732C-0.0274971 18.7508 4.98769 23.7588 11.1742 23.7588C17.3608 23.7588 22.376 18.7508 22.376 12.5732C22.376 6.39563 17.3608 1.3877 11.1742 1.38769C4.98769 1.38769 -0.0274966 6.39563 -0.0274968 12.5732Z" fill="#1A3954"/>
</g>
<defs>
<clipPath id="clip0_721_24">
<rect width="209" height="384" fill="white" transform="translate(384) rotate(90)"/>
</clipPath>
</defs>
</svg>
