<svg width="430" height="614" viewBox="0 0 430 614" fill="none" xmlns="http://www.w3.org/2000/svg">
<rect width="430" height="613.63" fill="#F8F9F9"/>
<path opacity="0.3" d="M347.93 473.045L215.092 394.096L234.381 382.948L367.219 461.907L347.93 473.045Z" fill="#D6D8E5"/>
<path d="M347.683 453.492L250.824 397.57C242.62 392.832 235.964 380.129 235.964 369.185V99.0174C235.973 88.0823 242.62 83.0524 250.824 87.7729L347.683 143.712C355.887 148.442 362.535 161.154 362.535 172.089V442.256C362.535 453.2 355.887 458.23 347.683 453.492Z" fill="#B1B4C4"/>
<path d="M349.336 458.362L357.018 454.481L349.654 441.867L349.336 458.362Z" fill="#B1B4C4"/>
<path d="M234.459 90.4868L241.522 86.7828L240.099 97.1875L234.459 90.4868Z" fill="#B1B4C4"/>
<path d="M341.504 456.577L244.644 400.708C236.441 395.97 229.793 383.258 229.793 372.323V102.102C229.793 91.1674 236.441 86.1375 244.644 90.8757L341.504 146.797C349.707 151.536 356.355 164.239 356.355 175.183V445.35C356.355 456.294 349.707 461.315 341.504 456.577Z" fill="#616E84"/>
<path d="M355.312 175.872V446.03C355.312 456.983 348.664 461.995 340.461 457.266L302.449 435.343L290.648 428.518L243.584 401.353C235.38 396.606 228.732 383.903 228.732 372.959V102.801C228.732 91.8479 235.38 86.8268 243.584 91.5562L340.479 147.478C348.682 152.225 355.312 164.919 355.312 175.872Z" fill="#20232D"/>
<path d="M348.337 173.132V436.254C348.337 442.884 343.696 445.58 337.95 442.256L307.664 424.77L305.012 423.232L304.128 422.711L297.587 418.936L278.643 408.01L270.793 403.475L267.628 401.645L246.138 389.216C240.401 385.901 235.742 377.839 235.742 371.209V108.105C235.742 101.475 240.401 98.7964 246.138 102.103L283.947 123.937V124.017C283.947 129.171 287.58 135.447 292.044 138.028C296.508 140.609 300.141 138.523 300.141 133.361C300.141 133.361 300.141 133.272 300.141 133.237L337.959 155.081C343.696 158.422 348.337 166.493 348.337 173.132Z" fill="#2B303F"/>
<path d="M332.469 234.994L251.981 188.548C251.064 187.889 250.314 187.025 249.79 186.024C249.267 185.023 248.985 183.914 248.967 182.785V126.819C248.967 124.591 250.319 123.575 251.981 124.538L332.469 171.001C333.386 171.66 334.137 172.525 334.66 173.525C335.184 174.526 335.466 175.635 335.484 176.765V232.748C335.484 234.932 334.096 235.957 332.469 234.994Z" fill="#353C4C"/>
<path d="M334.273 260.612L250.169 212.054C249.804 211.793 249.505 211.449 249.297 211.052C249.088 210.654 248.975 210.214 248.967 209.765V202.03C248.967 201.146 249.506 200.73 250.169 201.146L334.273 249.704C334.642 249.966 334.944 250.311 335.155 250.712C335.365 251.113 335.478 251.558 335.484 252.011V259.746C335.484 260.594 334.98 261.036 334.273 260.612Z" fill="#353C4C"/>
<path d="M321.499 271.423L250.169 230.247C249.803 229.982 249.504 229.635 249.296 229.235C249.087 228.835 248.974 228.391 248.967 227.939V220.196C248.967 219.312 249.506 218.905 250.169 219.312L321.499 260.497C321.868 260.759 322.17 261.105 322.381 261.505C322.591 261.906 322.704 262.351 322.71 262.804V270.539C322.71 271.397 322.171 271.812 321.499 271.423Z" fill="#353C4C"/>
<path d="M310.228 283.074L250.213 248.43C249.846 248.167 249.546 247.821 249.337 247.42C249.128 247.019 249.016 246.575 249.011 246.123V238.388C249.011 237.504 249.55 237.089 250.213 237.504L310.228 272.122C310.595 272.385 310.895 272.731 311.104 273.132C311.313 273.533 311.424 273.977 311.43 274.429V282.164C311.386 283.057 310.846 283.463 310.228 283.074Z" fill="#353C4C"/>
<path d="M332.867 387.448L248.764 338.89C248.395 338.628 248.093 338.282 247.883 337.881C247.672 337.48 247.559 337.036 247.553 336.583V328.848C247.553 327.964 248.092 327.549 248.764 327.964L332.867 376.522C333.236 376.785 333.537 377.131 333.748 377.531C333.958 377.932 334.071 378.377 334.078 378.829V386.564C334.096 387.448 333.539 387.837 332.867 387.448Z" fill="#353C4C"/>
<path d="M320.094 398.259L248.764 357.074C248.395 356.813 248.093 356.469 247.883 356.07C247.672 355.67 247.559 355.227 247.553 354.775V347.032C247.553 346.148 248.092 345.732 248.764 346.148L320.094 387.324C320.459 387.589 320.758 387.935 320.967 388.336C321.176 388.736 321.288 389.18 321.296 389.631V397.375C321.296 398.233 320.757 398.648 320.094 398.259Z" fill="#353C4C"/>
<path d="M308.77 409.91L248.764 375.266C248.395 375.004 248.093 374.658 247.883 374.258C247.672 373.857 247.559 373.412 247.553 372.959V365.224C247.553 364.34 248.092 363.925 248.764 364.34L308.77 398.94C309.139 399.202 309.441 399.547 309.652 399.948C309.862 400.349 309.975 400.794 309.981 401.247V408.982C309.981 409.893 309.441 410.299 308.77 409.91Z" fill="#353C4C"/>
<path d="M348.337 179.762V243.922L345.252 242.216C344.333 241.554 343.582 240.686 343.057 239.683C342.532 238.679 342.248 237.567 342.229 236.435V180.504C342.229 178.277 343.59 177.251 345.252 178.224L348.337 179.762Z" fill="#353C4C"/>
<path d="M255.605 317.241L249.568 313.758C249.195 313.492 248.891 313.142 248.679 312.737C248.467 312.331 248.354 311.882 248.348 311.424V282.491C248.348 281.607 248.896 281.192 249.559 281.607L255.596 285.143C255.963 285.406 256.262 285.75 256.471 286.149C256.68 286.548 256.792 286.991 256.799 287.441V316.41C256.808 317.214 256.304 317.612 255.605 317.241Z" fill="#353C4C"/>
<path d="M268.679 324.808L262.642 321.325C262.274 321.062 261.974 320.715 261.765 320.315C261.557 319.914 261.445 319.47 261.439 319.018V283.136C261.439 282.252 261.979 281.837 262.642 282.252L268.679 285.735C269.047 285.999 269.348 286.345 269.558 286.746C269.768 287.146 269.882 287.59 269.89 288.042V323.915C269.926 324.79 269.378 325.197 268.679 324.808Z" fill="#353C4C"/>
<path d="M281.824 332.384L275.751 328.892C275.385 328.629 275.086 328.285 274.877 327.886C274.668 327.486 274.556 327.044 274.549 326.594V301.17C274.549 300.286 275.088 299.87 275.751 300.286L281.789 303.769C282.158 304.031 282.46 304.377 282.67 304.778C282.88 305.178 282.993 305.623 283 306.076V331.491C283.035 332.357 282.496 332.764 281.824 332.384Z" fill="#353C4C"/>
<path d="M294.943 339.951L288.905 336.468C288.537 336.205 288.235 335.859 288.025 335.459C287.815 335.058 287.701 334.613 287.694 334.161V291.667C287.694 290.783 288.234 290.367 288.905 290.783L294.943 294.275C295.31 294.538 295.611 294.884 295.819 295.285C296.028 295.686 296.14 296.13 296.145 296.582V339.076C296.145 339.924 295.606 340.34 294.943 339.951Z" fill="#353C4C"/>
<path d="M308.052 347.518L302.014 344.035C301.645 343.772 301.344 343.426 301.134 343.025C300.923 342.625 300.81 342.18 300.803 341.728V305.855C300.803 304.971 301.351 304.555 302.014 304.971L308.052 308.454C308.418 308.718 308.717 309.065 308.926 309.465C309.135 309.866 309.247 310.309 309.254 310.761V346.607C309.254 347.5 308.715 347.907 308.052 347.518Z" fill="#353C4C"/>
<path d="M334.272 362.696L328.243 359.16C327.874 358.898 327.572 358.552 327.362 358.151C327.152 357.75 327.039 357.306 327.032 356.853V320.998C327.032 320.114 327.571 319.699 328.243 320.114L334.272 323.597C334.642 323.859 334.944 324.204 335.154 324.605C335.365 325.006 335.477 325.451 335.483 325.904V361.777C335.483 362.643 334.979 363.05 334.272 362.696Z" fill="#353C4C"/>
<path d="M321.163 355.094L315.125 351.611C314.759 351.346 314.46 350.999 314.252 350.599C314.043 350.198 313.93 349.755 313.923 349.303V300.18C313.923 299.296 314.462 298.889 315.125 299.296L321.163 302.779C321.531 303.042 321.833 303.387 322.043 303.788C322.253 304.189 322.367 304.633 322.374 305.086V354.21C322.374 355.067 321.835 355.474 321.163 355.094Z" fill="#353C4C"/>
<path d="M294.22 135.349C295.42 134.656 295.422 132.411 294.224 130.335C293.025 128.259 291.08 127.138 289.879 127.831C288.678 128.525 288.677 130.769 289.875 132.845C291.074 134.921 293.019 136.042 294.22 135.349Z" fill="#2B303F"/>
<path opacity="0.1" d="M292.043 133.069C291.673 132.822 291.366 132.492 291.147 132.105C290.927 131.718 290.801 131.285 290.779 130.841C290.779 130.019 291.363 129.692 292.07 130.099C292.444 130.344 292.756 130.672 292.98 131.059C293.204 131.446 293.334 131.88 293.361 132.326C293.334 133.148 292.751 133.484 292.043 133.069Z" fill="white"/>
<path d="M359.254 211.418C358.468 211.877 357.822 211.418 357.822 210.339V198.847C357.832 198.312 357.966 197.786 358.215 197.312C358.464 196.838 358.819 196.428 359.254 196.116C360.041 195.665 360.686 196.116 360.686 197.203V208.695C360.675 209.229 360.54 209.753 360.292 210.225C360.043 210.698 359.688 211.106 359.254 211.418Z" fill="#757B89"/>
<path d="M359.254 230.291C358.468 230.751 357.822 230.291 357.822 229.213V217.721C357.832 217.185 357.966 216.66 358.215 216.185C358.464 215.711 358.819 215.302 359.254 214.989C360.041 214.538 360.686 214.989 360.686 216.077V227.569C360.675 228.102 360.54 228.626 360.292 229.099C360.043 229.572 359.688 229.98 359.254 230.291Z" fill="#757B89"/>
<path opacity="0.3" d="M159.93 363.2C183.77 363.2 203.096 352.043 203.096 338.28C203.096 324.517 183.77 313.36 159.93 313.36C136.091 313.36 116.765 324.517 116.765 338.28C116.765 352.043 136.091 363.2 159.93 363.2Z" fill="#D6D8E5"/>
<path d="M164.244 356.702C188.083 356.702 207.409 345.545 207.409 331.783C207.409 318.02 188.083 306.863 164.244 306.863C140.404 306.863 121.078 318.02 121.078 331.783C121.078 345.545 140.404 356.702 164.244 356.702Z" fill="#DD990E"/>
<path d="M121.088 332.163V320.812L129.618 328.406L121.088 332.163Z" fill="#DD990E"/>
<path d="M207.409 321.104V331.783L203.05 336.415L200.911 324.189L207.409 321.104Z" fill="#DD990E"/>
<path d="M164.245 346.024C188.084 346.024 207.41 334.867 207.41 321.104C207.41 307.341 188.084 296.184 164.245 296.184C140.405 296.184 121.079 307.341 121.079 321.104C121.079 334.867 140.405 346.024 164.245 346.024Z" fill="#F9CB07"/>
<path d="M195.096 321.882C194.654 326.072 191.666 330.209 186.097 333.427C174.03 340.393 154.459 340.393 142.392 333.427C136.832 330.209 133.835 326.072 133.411 321.882C132.889 316.967 135.886 311.946 142.392 308.198C154.459 301.223 174.03 301.223 186.097 308.198C192.603 311.946 195.609 316.967 195.096 321.882Z" fill="#CC8B09"/>
<path d="M195.095 321.882C194.653 326.072 191.666 330.209 186.096 333.427C174.03 340.393 154.458 340.393 142.392 333.427C136.831 330.209 133.834 326.072 133.41 321.882C133.834 317.683 136.831 313.546 142.392 310.328C154.458 303.353 174.03 303.353 186.096 310.328C191.666 313.546 194.653 317.683 195.095 321.882Z" fill="#E8A30A"/>
<path d="M163.793 316.039C163.414 316.038 163.036 316.067 162.662 316.127C162.149 316.207 161.583 316.304 160.955 316.437C160.328 316.569 159.665 316.737 158.984 316.94C158.32 317.137 157.673 317.385 157.048 317.683L162.016 320.547L162.9 320.229C164.164 319.813 165.358 319.451 166.436 319.159C167.489 318.879 168.567 318.701 169.654 318.629C170.643 318.566 171.636 318.634 172.607 318.832C173.602 319.044 174.557 319.414 175.435 319.928C176.297 320.364 177.033 321.012 177.575 321.811C177.754 322.096 177.874 322.415 177.927 322.748C177.98 323.08 177.965 323.42 177.884 323.747C177.675 324.478 177.275 325.14 176.726 325.665C176.041 326.343 175.279 326.936 174.454 327.433L177.61 329.255L175.895 330.253L172.713 328.415C171.193 329.154 169.607 329.746 167.974 330.183C166.264 330.658 164.516 330.986 162.75 331.164L161.123 328.22C161.588 328.209 162.051 328.174 162.511 328.114C163.212 328.032 163.909 327.914 164.598 327.761C165.358 327.593 166.171 327.389 167.02 327.142C167.848 326.908 168.658 326.613 169.442 326.258L164.509 323.402L163.864 323.632L163.192 323.836C161.946 324.242 160.805 324.561 159.771 324.799C158.816 325.021 157.842 325.151 156.863 325.188C156.001 325.22 155.14 325.139 154.299 324.949C153.462 324.743 152.658 324.419 151.912 323.986C151.099 323.559 150.392 322.955 149.844 322.218C149.449 321.662 149.252 320.989 149.287 320.308C149.36 319.598 149.646 318.926 150.109 318.381C150.677 317.67 151.355 317.052 152.115 316.551L149.189 314.863L150.913 313.873L153.804 315.544C155.165 314.873 156.593 314.348 158.065 313.979C159.465 313.623 160.889 313.366 162.326 313.21L163.793 316.039ZM155.36 321.245C156.011 321.617 156.762 321.777 157.508 321.705C158.512 321.587 159.502 321.364 160.46 321.042L155.819 318.39C154.113 319.478 153.963 320.432 155.36 321.245ZM171.652 322.598C170.942 322.213 170.126 322.068 169.327 322.183C168.244 322.336 167.177 322.581 166.136 322.916L170.75 325.568C172.677 324.357 172.996 323.376 171.652 322.598Z" fill="#CC8B09"/>
<path d="M161.124 328.22C161.124 328.105 161.124 326.549 161.124 326.549L163.016 327.769L162.194 329.033L161.124 328.22Z" fill="#CC8B09"/>
<path d="M177.654 329.272V327.601L173.543 327.911L175.903 329.52L177.654 329.272Z" fill="#CC8B09"/>
<path d="M177.998 323.128V321.44L174.922 322.554L177.998 323.128Z" fill="#CC8B09"/>
<path d="M165.251 323.04L166.268 322.059L169.874 324.552L169.653 325.285C169.653 325.285 166.957 324.154 166.869 324.092C166.78 324.03 165.251 323.04 165.251 323.04Z" fill="#CC8B09"/>
<path d="M155.827 317.771L160.618 320.476L161.591 319.769C161.591 319.769 160.99 319.08 160.946 319.018C160.52 318.526 160.019 318.105 159.46 317.771C159.098 317.701 156.808 316.684 156.808 316.684L155.827 317.771Z" fill="#CC8B09"/>
<path d="M163.794 316.039V314.368L161.593 313.652L161.124 314.96L161.239 315.561L163.794 316.039Z" fill="#CC8B09"/>
<path d="M149.189 314.828V313.157L151.735 313.431L150.913 315.057L149.189 314.828Z" fill="#CC8B09"/>
<path d="M149.278 320.512V318.744H152.196L151.479 320.3L150.224 321.723L149.278 320.512Z" fill="#CC8B09"/>
<path d="M163.793 314.368C163.414 314.367 163.036 314.397 162.662 314.456C162.149 314.527 161.583 314.633 160.955 314.766C160.328 314.898 159.665 315.066 158.984 315.27C158.322 315.467 157.675 315.712 157.048 316.003L162.016 318.867L162.9 318.558C164.164 318.134 165.358 317.78 166.436 317.488C167.489 317.208 168.567 317.03 169.654 316.958C170.642 316.897 171.635 316.962 172.607 317.152C173.602 317.367 174.558 317.74 175.435 318.257C176.297 318.693 177.033 319.341 177.575 320.14C177.754 320.426 177.874 320.744 177.927 321.077C177.98 321.409 177.965 321.749 177.884 322.076C177.675 322.804 177.275 323.464 176.726 323.986C176.043 324.665 175.281 325.259 174.454 325.754L177.628 327.601L175.913 328.591L172.73 326.753C171.212 327.495 169.625 328.088 167.992 328.521C166.281 328.993 164.534 329.318 162.768 329.493L161.106 326.514C161.57 326.503 162.033 326.467 162.494 326.408C163.121 326.337 163.811 326.213 164.58 326.054C165.349 325.895 166.153 325.674 167.002 325.427C167.83 325.193 168.64 324.898 169.424 324.543L164.491 321.696L163.846 321.917L163.174 322.129C161.931 322.536 160.79 322.854 159.753 323.084C158.799 323.31 157.825 323.441 156.845 323.473C155.984 323.504 155.122 323.424 154.281 323.234C153.441 323.036 152.637 322.711 151.894 322.271C151.081 321.844 150.374 321.24 149.826 320.503C149.431 319.947 149.235 319.274 149.269 318.593C149.344 317.88 149.63 317.206 150.091 316.657C150.662 315.951 151.339 315.337 152.098 314.836L149.189 313.192L150.913 312.193L153.804 313.873C155.165 313.202 156.593 312.677 158.065 312.308C159.465 311.952 160.889 311.695 162.326 311.539L163.793 314.368ZM155.36 319.566C156.008 319.946 156.76 320.11 157.508 320.034C158.512 319.916 159.502 319.693 160.46 319.371L155.819 316.719C154.116 317.81 153.963 318.758 155.36 319.566ZM171.652 320.927C170.943 320.538 170.126 320.392 169.327 320.512C168.229 320.652 167.146 320.892 166.091 321.228L170.706 323.88C172.68 322.683 172.996 321.699 171.652 320.927Z" fill="#F9CA06"/>
<path d="M164.244 342.727C188.083 342.727 207.409 331.57 207.409 317.807C207.409 304.044 188.083 292.887 164.244 292.887C140.404 292.887 121.078 304.044 121.078 317.807C121.078 331.57 140.404 342.727 164.244 342.727Z" fill="#DD990E"/>
<path d="M121.088 318.178V306.827L129.618 314.421L121.088 318.178Z" fill="#DD990E"/>
<path d="M207.409 307.128V317.806L203.05 322.43L200.911 310.204L207.409 307.128Z" fill="#DD990E"/>
<path d="M164.245 332.048C188.084 332.048 207.41 320.891 207.41 307.128C207.41 293.365 188.084 282.208 164.245 282.208C140.405 282.208 121.079 293.365 121.079 307.128C121.079 320.891 140.405 332.048 164.245 332.048Z" fill="#F9CB07"/>
<path d="M195.096 307.888C194.654 312.087 191.666 316.215 186.097 319.433C174.03 326.399 154.459 326.399 142.392 319.433C136.832 316.215 133.835 312.087 133.411 307.888C132.889 302.973 135.886 297.952 142.392 294.204C154.459 287.229 174.03 287.229 186.097 294.204C192.603 297.961 195.609 302.982 195.096 307.888Z" fill="#CC8B09"/>
<path d="M195.095 307.888C194.653 312.087 191.666 316.215 186.096 319.433C174.03 326.399 154.458 326.399 142.392 319.433C136.831 316.215 133.834 312.087 133.41 307.888C133.834 303.689 136.831 299.561 142.392 296.343C154.458 289.368 174.03 289.368 186.096 296.343C191.666 299.57 194.653 303.698 195.095 307.888Z" fill="#E8A30A"/>
<path d="M163.793 302.054C163.414 302.057 163.036 302.089 162.662 302.151C162.149 302.222 161.583 302.319 160.955 302.452C160.328 302.584 159.665 302.761 158.984 302.964C158.321 303.158 157.673 303.403 157.048 303.698L162.016 306.562L162.9 306.253C164.164 305.828 165.358 305.475 166.436 305.183C167.489 304.902 168.567 304.725 169.654 304.653C170.642 304.587 171.635 304.652 172.607 304.847C173.602 305.062 174.558 305.435 175.435 305.952C176.296 306.385 177.032 307.03 177.575 307.826C177.754 308.113 177.873 308.433 177.926 308.767C177.98 309.101 177.965 309.443 177.884 309.771C177.675 310.499 177.275 311.158 176.726 311.681C176.041 312.358 175.279 312.951 174.454 313.449L177.61 315.27L175.895 316.26L172.713 314.421C171.193 315.16 169.607 315.752 167.974 316.189C166.263 316.657 164.515 316.982 162.75 317.161L161.088 314.182C161.552 314.171 162.015 314.136 162.476 314.076C163.104 313.997 163.793 313.882 164.562 313.714C165.331 313.546 166.136 313.342 166.984 313.095C167.813 312.862 168.622 312.566 169.406 312.211L164.474 309.364L163.828 309.585L163.157 309.789C162.033 310.168 160.892 310.49 159.736 310.752C158.781 310.974 157.807 311.104 156.827 311.141C155.966 311.173 155.104 311.092 154.264 310.903C153.425 310.7 152.621 310.376 151.877 309.939C151.063 309.513 150.356 308.908 149.808 308.171C149.414 307.611 149.218 306.936 149.251 306.253C149.324 305.542 149.611 304.87 150.073 304.326C150.642 303.617 151.32 303.002 152.08 302.505L149.189 300.816L150.913 299.817L153.804 301.488C155.165 300.817 156.593 300.292 158.065 299.923C159.466 299.572 160.89 299.315 162.326 299.154L163.793 302.054ZM155.36 307.261C156.009 307.638 156.761 307.799 157.508 307.72C158.514 307.61 159.504 307.388 160.46 307.057L155.819 304.405C154.116 305.501 153.963 306.453 155.36 307.261ZM171.652 308.622C170.945 308.229 170.127 308.083 169.327 308.206C168.23 308.348 167.147 308.585 166.091 308.914L170.706 311.566C172.68 310.375 172.996 309.394 171.652 308.622Z" fill="#CC8B09"/>
<path d="M161.124 314.235C161.124 314.111 161.124 312.556 161.124 312.556L163.016 313.775L162.194 315.048L161.124 314.235Z" fill="#CC8B09"/>
<path d="M177.654 315.296V313.617L173.543 313.935L175.903 315.544L177.654 315.296Z" fill="#CC8B09"/>
<path d="M177.998 309.152V307.455L174.922 308.569L177.998 309.152Z" fill="#CC8B09"/>
<path d="M165.251 309.064L166.268 308.083L169.874 310.576L169.653 311.309C169.653 311.309 166.957 310.169 166.869 310.107C166.78 310.045 165.251 309.064 165.251 309.064Z" fill="#CC8B09"/>
<path d="M155.827 303.787L160.618 306.5L161.591 305.793C161.591 305.793 160.99 305.104 160.946 305.033C160.518 304.543 160.017 304.123 159.46 303.787C159.098 303.716 156.808 302.699 156.808 302.699L155.827 303.787Z" fill="#CC8B09"/>
<path d="M163.794 302.063V300.383L161.593 299.667L161.124 300.984L161.239 301.585L163.794 302.063Z" fill="#CC8B09"/>
<path d="M149.189 300.851V299.172L151.735 299.446L150.913 301.072L149.189 300.851Z" fill="#CC8B09"/>
<path d="M149.278 306.527V304.759H152.196L151.479 306.315L150.224 307.738L149.278 306.527Z" fill="#CC8B09"/>
<path d="M163.793 300.383C163.414 300.382 163.036 300.412 162.662 300.472C162.149 300.551 161.583 300.648 160.956 300.781C160.328 300.914 159.665 301.081 158.984 301.285C158.321 301.482 157.673 301.73 157.048 302.027L162.016 304.892L162.9 304.573C164.164 304.158 165.358 303.795 166.436 303.504C167.489 303.223 168.567 303.045 169.654 302.973C170.643 302.91 171.636 302.979 172.607 303.177C173.602 303.388 174.557 303.758 175.435 304.273C176.312 304.691 177.067 305.327 177.628 306.12C177.807 306.406 177.927 306.724 177.98 307.057C178.033 307.389 178.019 307.729 177.937 308.056C177.724 308.804 177.311 309.479 176.744 310.01C176.061 310.69 175.298 311.283 174.472 311.778L177.628 313.599L175.913 314.598L172.73 312.759C171.211 313.498 169.624 314.09 167.992 314.527C166.282 315.002 164.534 315.33 162.768 315.508L161.106 312.52C161.57 312.509 162.033 312.474 162.494 312.414C163.195 312.332 163.891 312.214 164.58 312.061C165.34 311.893 166.153 311.689 167.002 311.442C167.831 311.209 168.64 310.913 169.424 310.558L164.492 307.703L163.846 307.932L163.174 308.136C161.928 308.542 160.788 308.861 159.753 309.099C158.798 309.321 157.825 309.451 156.845 309.488C155.984 309.52 155.122 309.439 154.281 309.25C153.444 309.043 152.64 308.719 151.895 308.286C151.081 307.859 150.374 307.255 149.826 306.518C149.431 305.962 149.235 305.29 149.269 304.609C149.342 303.898 149.629 303.226 150.091 302.682C150.66 301.97 151.337 301.352 152.098 300.852L149.172 299.163L150.896 298.173L153.786 299.844C155.147 299.173 156.575 298.648 158.047 298.279C159.448 297.923 160.872 297.666 162.308 297.51L163.793 300.383ZM155.36 305.59C156.011 305.961 156.762 306.122 157.508 306.05C158.513 305.935 159.503 305.713 160.461 305.387L155.82 302.735C154.113 303.822 153.963 304.777 155.36 305.59ZM171.652 306.942C170.942 306.558 170.127 306.412 169.327 306.527C168.23 306.672 167.147 306.912 166.092 307.243L170.706 309.895C172.677 308.702 172.996 307.72 171.652 306.942Z" fill="#F9CA06"/>
<path d="M167.038 326.877C190.877 326.877 210.203 315.719 210.203 301.957C210.203 288.194 190.877 277.037 167.038 277.037C143.198 277.037 123.872 288.194 123.872 301.957C123.872 315.719 143.198 326.877 167.038 326.877Z" fill="#DD990E"/>
<path d="M123.89 302.337V290.977L132.411 298.58L123.89 302.337Z" fill="#DD990E"/>
<path d="M210.202 291.278V301.957L205.844 306.589L203.705 294.363L210.202 291.278Z" fill="#DD990E"/>
<path d="M167.039 316.198C190.878 316.198 210.204 305.041 210.204 291.278C210.204 277.515 190.878 266.358 167.039 266.358C143.199 266.358 123.873 277.515 123.873 291.278C123.873 305.041 143.199 316.198 167.039 316.198Z" fill="#F9CB07"/>
<path d="M197.89 292.047C197.448 296.246 194.46 300.383 188.899 303.601C176.824 310.558 157.261 310.558 145.186 303.601C139.625 300.383 136.637 296.246 136.204 292.047C135.683 287.141 138.688 282.119 145.186 278.371C157.261 271.397 176.824 271.397 188.899 278.371C195.397 282.119 198.402 287.141 197.89 292.047Z" fill="#CC8B09"/>
<path d="M197.888 292.047C197.446 296.246 194.459 300.383 188.898 303.601C176.823 310.558 157.26 310.558 145.185 303.601C139.624 300.383 136.636 296.246 136.203 292.047C136.636 287.857 139.624 283.72 145.185 280.502C157.26 273.527 176.823 273.527 188.898 280.502C194.423 283.72 197.446 287.857 197.888 292.047Z" fill="#E8A30A"/>
<path d="M166.586 286.213C166.207 286.212 165.829 286.241 165.454 286.301C164.951 286.372 164.376 286.478 163.748 286.61C163.121 286.743 162.458 286.911 161.786 287.114C161.121 287.314 160.472 287.559 159.841 287.848L164.809 290.721L165.693 290.403C166.948 289.987 168.142 289.625 169.229 289.333C170.279 289.052 171.354 288.874 172.438 288.803C173.43 288.74 174.426 288.809 175.399 289.006C176.392 289.218 177.344 289.588 178.219 290.102C179.081 290.538 179.817 291.186 180.359 291.985C180.537 292.271 180.657 292.589 180.712 292.921C180.766 293.254 180.755 293.593 180.677 293.921C180.46 294.65 180.058 295.311 179.51 295.839C178.827 296.515 178.067 297.108 177.247 297.607L180.403 299.428L178.679 300.427L175.497 298.589C173.977 299.328 172.391 299.92 170.758 300.357C169.051 300.832 167.306 301.161 165.543 301.338L163.872 298.35C164.339 298.338 164.805 298.303 165.269 298.244C165.967 298.161 166.66 298.043 167.346 297.89C168.115 297.722 168.92 297.519 169.768 297.271C170.598 297.034 171.411 296.739 172.199 296.387L167.258 293.541L166.613 293.762L165.941 293.974C164.694 294.381 163.563 294.699 162.528 294.929C161.571 295.153 160.594 295.286 159.611 295.327C158.75 295.358 157.887 295.275 157.048 295.079C156.209 294.88 155.405 294.558 154.661 294.124C153.85 293.697 153.146 293.093 152.601 292.356C152.198 291.805 152.001 291.129 152.044 290.447C152.117 289.735 152.4 289.061 152.858 288.511C153.441 287.795 154.133 287.174 154.908 286.672L151.991 285.002L153.715 284.012L156.615 285.682C157.974 285.008 159.403 284.484 160.875 284.118C162.276 283.76 163.699 283.503 165.136 283.349L166.586 286.213ZM158.179 291.411C158.829 291.788 159.58 291.951 160.327 291.879C161.335 291.761 162.327 291.538 163.289 291.216L158.639 288.564C156.918 289.66 156.765 290.609 158.179 291.411ZM174.48 292.772C173.769 292.389 172.955 292.243 172.155 292.356C171.054 292.497 169.969 292.737 168.911 293.072L173.525 295.724C175.482 294.528 175.791 293.544 174.454 292.772H174.48Z" fill="#CC8B09"/>
<path d="M163.918 298.385C163.971 298.261 163.918 296.714 163.918 296.714L165.819 297.934L164.996 299.198L163.918 298.385Z" fill="#CC8B09"/>
<path d="M180.448 299.446V297.776L176.337 298.085L178.697 299.694L180.448 299.446Z" fill="#CC8B09"/>
<path d="M180.792 293.302V291.614L177.716 292.728L180.792 293.302Z" fill="#CC8B09"/>
<path d="M168.062 293.214L169.088 292.233L172.695 294.725L172.465 295.459C172.465 295.459 169.813 294.328 169.689 294.257L168.062 293.214Z" fill="#CC8B09"/>
<path d="M158.631 287.936L163.413 290.65L164.395 289.943C164.395 289.943 163.793 289.254 163.749 289.183C163.316 288.696 162.812 288.276 162.255 287.936C161.902 287.875 159.603 286.858 159.603 286.858L158.631 287.936Z" fill="#CC8B09"/>
<path d="M166.588 286.213V284.542L164.395 283.826L163.918 285.134L164.033 285.735L166.588 286.213Z" fill="#CC8B09"/>
<path d="M151.983 285.001V283.331L154.538 283.605L153.707 285.222L151.983 285.001Z" fill="#CC8B09"/>
<path d="M152.081 290.686V288.918H154.998L154.291 290.474L153.018 291.87L152.081 290.686Z" fill="#CC8B09"/>
<path d="M166.586 284.542C166.207 284.536 165.828 284.566 165.454 284.63C164.951 284.701 164.376 284.807 163.748 284.939C163.121 285.072 162.458 285.24 161.786 285.443C161.121 285.643 160.472 285.888 159.841 286.177L164.809 289.041L165.693 288.732C166.948 288.308 168.142 287.954 169.229 287.662C170.279 287.381 171.354 287.203 172.438 287.132C173.429 287.066 174.425 287.132 175.399 287.326C176.393 287.541 177.345 287.914 178.219 288.431C179.081 288.867 179.817 289.515 180.359 290.314C180.537 290.6 180.657 290.918 180.712 291.25C180.766 291.583 180.755 291.922 180.677 292.25C180.46 292.977 180.058 293.635 179.51 294.16C178.829 294.837 178.069 295.431 177.247 295.928L180.403 297.749L178.679 298.739L175.497 296.9C173.977 297.639 172.391 298.231 170.758 298.668C169.05 299.136 167.305 299.462 165.543 299.64L163.872 296.661C164.339 296.65 164.805 296.614 165.269 296.555C165.888 296.484 166.577 296.361 167.346 296.193C168.115 296.025 168.92 295.822 169.768 295.574C170.6 295.341 171.412 295.045 172.199 294.69L167.258 291.844L166.613 292.065L165.941 292.268C164.821 292.647 163.682 292.969 162.528 293.231C161.57 293.453 160.594 293.583 159.611 293.62C158.75 293.651 157.888 293.571 157.048 293.382C156.208 293.183 155.403 292.858 154.661 292.418C153.848 291.994 153.143 291.389 152.601 290.65C152.197 290.095 152 289.417 152.044 288.732C152.115 288.022 152.398 287.35 152.858 286.805C153.429 286.098 154.106 285.484 154.864 284.984L151.991 283.331L153.715 282.332L156.615 284.011C157.971 283.33 159.4 282.805 160.875 282.447C162.276 282.091 163.7 281.831 165.136 281.669L166.586 284.542ZM158.179 289.74C158.828 290.117 159.581 290.278 160.327 290.199C161.336 290.089 162.329 289.867 163.289 289.536L158.639 286.884C156.918 287.98 156.765 288.932 158.179 289.74ZM174.454 291.092C173.744 290.705 172.928 290.559 172.129 290.677C171.029 290.818 169.943 291.055 168.884 291.384L173.499 294.036C175.473 292.851 175.791 291.87 174.454 291.092Z" fill="#F9CA06"/>
<path d="M166.11 311.035C189.95 311.035 209.276 299.878 209.276 286.115C209.276 272.353 189.95 261.196 166.11 261.196C142.27 261.196 122.944 272.353 122.944 286.115C122.944 299.878 142.27 311.035 166.11 311.035Z" fill="#DD990E"/>
<path d="M122.954 286.487V275.136L131.485 282.73L122.954 286.487Z" fill="#DD990E"/>
<path d="M209.276 275.437V286.115L204.918 290.739L202.778 278.513L209.276 275.437Z" fill="#DD990E"/>
<path d="M166.11 300.357C189.95 300.357 209.276 289.2 209.276 275.437C209.276 261.674 189.95 250.517 166.11 250.517C142.27 250.517 122.944 261.674 122.944 275.437C122.944 289.2 142.27 300.357 166.11 300.357Z" fill="#F9CB07"/>
<path d="M196.962 276.206C196.52 280.405 193.532 284.533 187.963 287.751C175.896 294.717 156.325 294.717 144.258 287.751C138.689 284.533 135.701 280.405 135.277 276.206C134.755 271.291 137.752 266.27 144.258 262.522C156.325 255.547 175.896 255.547 187.963 262.522C194.469 266.27 197.475 271.291 196.962 276.206Z" fill="#CC8B09"/>
<path d="M196.963 276.206C196.521 280.405 193.533 284.533 187.964 287.751C175.897 294.717 156.325 294.717 144.259 287.751C138.69 284.533 135.702 280.405 135.277 276.206C135.702 272.007 138.69 267.87 144.259 264.661C156.325 257.686 175.897 257.686 187.964 264.661C193.542 267.87 196.521 272.007 196.963 276.206Z" fill="#E8A30A"/>
<path d="M165.659 270.363C165.279 270.366 164.901 270.398 164.527 270.46C164.014 270.531 163.449 270.628 162.812 270.76C162.176 270.893 161.53 271.061 160.85 271.264C160.187 271.465 159.54 271.713 158.914 272.007L163.873 274.871L164.757 274.562C166.021 274.137 167.214 273.784 168.293 273.492C169.346 273.211 170.423 273.034 171.511 272.962C172.499 272.896 173.492 272.962 174.463 273.156C175.459 273.371 176.414 273.744 177.292 274.261C178.153 274.694 178.889 275.339 179.431 276.135C179.61 276.422 179.73 276.742 179.783 277.076C179.836 277.41 179.822 277.752 179.741 278.08C179.531 278.808 179.132 279.467 178.583 279.989C177.898 280.667 177.136 281.261 176.311 281.757L179.467 283.587L177.752 284.577L174.56 282.739C173.046 283.483 171.462 284.075 169.831 284.507C168.121 284.982 166.373 285.31 164.607 285.488L162.945 282.509C163.409 282.498 163.872 282.462 164.333 282.403C164.96 282.323 165.65 282.208 166.419 282.04C167.188 281.872 167.992 281.669 168.841 281.421C169.669 281.188 170.479 280.893 171.263 280.537L166.33 277.691L165.685 277.912L165.013 278.115C163.767 278.522 162.626 278.849 161.592 279.079C160.637 279.3 159.663 279.43 158.684 279.468C157.82 279.499 156.955 279.418 156.111 279.229C155.276 279.027 154.474 278.702 153.733 278.266C152.92 277.839 152.213 277.235 151.665 276.498C151.271 275.938 151.075 275.263 151.108 274.579C151.179 273.87 151.462 273.198 151.921 272.652C152.495 271.945 153.175 271.331 153.937 270.831L151.011 269.143L152.726 268.144L155.625 269.815C156.986 269.143 158.414 268.619 159.886 268.25C161.288 267.898 162.711 267.641 164.147 267.481L165.659 270.363ZM157.216 275.569C157.87 275.944 158.624 276.105 159.373 276.029C160.379 275.919 161.37 275.697 162.326 275.366L157.676 272.714C155.979 273.801 155.82 274.765 157.216 275.569ZM173.517 276.948C172.808 276.562 171.991 276.42 171.192 276.542C170.093 276.683 169.007 276.92 167.948 277.249L172.571 279.901C174.546 278.693 174.861 277.709 173.517 276.948Z" fill="#CC8B09"/>
<path d="M162.99 282.544C163.034 282.42 162.99 280.865 162.99 280.865L164.882 282.085L164.06 283.358L162.99 282.544Z" fill="#CC8B09"/>
<path d="M179.513 283.605V281.925L175.411 282.243L177.771 283.852L179.513 283.605Z" fill="#CC8B09"/>
<path d="M179.864 277.461V275.764L176.788 276.878L179.864 277.461Z" fill="#CC8B09"/>
<path d="M167.128 277.373L168.153 276.391L171.76 278.884L171.539 279.618C171.539 279.618 168.843 278.478 168.754 278.416C168.666 278.354 167.128 277.373 167.128 277.373Z" fill="#CC8B09"/>
<path d="M157.694 272.095L162.477 274.809L163.458 274.102C163.458 274.102 162.857 273.404 162.813 273.342C162.384 272.85 161.879 272.429 161.319 272.095C160.965 272.025 158.667 271.008 158.667 271.008L157.694 272.095Z" fill="#CC8B09"/>
<path d="M165.66 270.362V268.692L163.459 267.976L162.99 269.293L163.105 269.894L165.66 270.362Z" fill="#CC8B09"/>
<path d="M151.057 269.16V267.481L153.603 267.755L152.78 269.381L151.057 269.16Z" fill="#CC8B09"/>
<path d="M151.107 274.836V273.068H154.033L153.317 274.623L152.089 276.064L151.107 274.836Z" fill="#CC8B09"/>
<path d="M165.66 268.692C165.281 268.691 164.903 268.721 164.529 268.78C164.016 268.86 163.45 268.957 162.814 269.09C162.177 269.222 161.532 269.39 160.851 269.594C160.188 269.79 159.54 270.039 158.915 270.336L163.875 273.2L164.759 272.882C166.023 272.467 167.216 272.104 168.295 271.812C169.347 271.532 170.425 271.354 171.512 271.282C172.501 271.22 173.494 271.288 174.465 271.485C175.46 271.697 176.416 272.067 177.294 272.581C178.153 273.02 178.889 273.667 179.433 274.464C179.612 274.75 179.732 275.068 179.785 275.401C179.838 275.733 179.824 276.073 179.742 276.4C179.533 277.131 179.134 277.793 178.584 278.319C177.898 278.994 177.135 279.587 176.312 280.087L179.468 281.908L177.753 282.907L174.562 281.068C173.046 281.808 171.463 282.4 169.833 282.836C168.122 283.311 166.375 283.639 164.608 283.817L162.946 280.829C163.411 280.818 163.874 280.783 164.334 280.723C165.035 280.641 165.732 280.523 166.421 280.37C167.181 280.202 167.994 279.998 168.843 279.751C169.671 279.517 170.481 279.222 171.265 278.867L166.376 276.064L165.731 276.294L165.059 276.498C163.813 276.904 162.672 277.222 161.638 277.461C160.683 277.682 159.709 277.813 158.73 277.85C157.866 277.881 157.001 277.801 156.157 277.611C155.323 277.405 154.522 277.081 153.779 276.648C152.966 276.221 152.259 275.617 151.711 274.88C151.316 274.324 151.12 273.651 151.154 272.97C151.224 272.261 151.508 271.589 151.967 271.043C152.541 270.334 153.221 269.716 153.983 269.213L151.057 267.525L152.772 266.535L155.671 268.206C157.032 267.535 158.46 267.01 159.932 266.641C161.332 266.285 162.756 266.028 164.193 265.872L165.66 268.692ZM157.218 273.899C157.873 274.269 158.626 274.429 159.375 274.358C160.379 274.24 161.369 274.018 162.328 273.695L157.678 271.043C155.98 272.131 155.821 273.085 157.218 273.899ZM173.519 275.251C172.809 274.866 171.994 274.721 171.194 274.836C170.094 274.981 169.009 275.22 167.95 275.552L172.573 278.204C174.544 277.01 174.863 276.064 173.519 275.251Z" fill="#F9CA06"/>
<path opacity="0.3" d="M351.81 518.625C375.65 518.625 394.976 507.468 394.976 493.705C394.976 479.942 375.65 468.785 351.81 468.785C327.97 468.785 308.645 479.942 308.645 493.705C308.645 507.468 327.97 518.625 351.81 518.625Z" fill="#D6D8E5"/>
<path d="M356.92 513.709C380.759 513.709 400.085 502.552 400.085 488.789C400.085 475.026 380.759 463.869 356.92 463.869C333.08 463.869 313.754 475.026 313.754 488.789C313.754 502.552 333.08 513.709 356.92 513.709Z" fill="#DD990E"/>
<path d="M313.772 489.169V477.81L322.294 485.412L313.772 489.169Z" fill="#DD990E"/>
<path d="M400.085 478.111V488.789L395.727 493.422L393.597 481.196L400.085 478.111Z" fill="#DD990E"/>
<path d="M356.92 503.031C380.759 503.031 400.085 491.874 400.085 478.111C400.085 464.348 380.759 453.191 356.92 453.191C333.08 453.191 313.754 464.348 313.754 478.111C313.754 491.874 333.08 503.031 356.92 503.031Z" fill="#F9CB07"/>
<path d="M387.772 478.88C387.338 483.079 384.342 487.216 378.781 490.434C366.706 497.391 347.143 497.391 335.068 490.434C329.507 487.216 326.519 483.079 326.086 478.88C325.565 473.974 328.57 468.952 335.068 465.204C347.143 458.23 366.706 458.23 378.781 465.204C385.287 468.952 388.284 473.974 387.772 478.88Z" fill="#CC8B09"/>
<path d="M387.77 478.88C387.337 483.079 384.34 487.216 378.78 490.434C366.705 497.391 347.142 497.391 335.066 490.434C329.506 487.216 326.518 483.079 326.085 478.88C326.518 474.69 329.506 470.553 335.066 467.335C347.142 460.36 366.705 460.36 378.78 467.335C384.34 470.544 387.337 474.69 387.77 478.88Z" fill="#E8A30A"/>
<path d="M356.469 473.045C356.09 473.045 355.712 473.074 355.338 473.134C354.834 473.205 354.259 473.311 353.631 473.443C353.004 473.576 352.341 473.744 351.669 473.947C351.004 474.146 350.355 474.392 349.724 474.681L354.692 477.554L355.576 477.236C356.832 476.82 358.025 476.458 359.112 476.166C360.162 475.885 361.237 475.707 362.321 475.636C363.313 475.573 364.309 475.641 365.283 475.839C366.276 476.047 367.229 476.417 368.102 476.935C368.964 477.371 369.7 478.019 370.242 478.818C370.42 479.104 370.54 479.422 370.595 479.754C370.649 480.086 370.638 480.426 370.56 480.754C370.345 481.484 369.943 482.146 369.393 482.672C368.712 483.349 367.952 483.943 367.13 484.44L370.339 486.279L368.571 487.278L365.389 485.439C363.87 486.18 362.283 486.772 360.65 487.207C358.944 487.684 357.199 488.01 355.435 488.18L353.764 485.2C354.231 485.189 354.697 485.154 355.161 485.094C355.859 485.012 356.552 484.894 357.238 484.741C358.007 484.573 358.812 484.37 359.66 484.113C360.492 483.88 361.304 483.584 362.091 483.229L357.15 480.383L356.504 480.604L355.833 480.816C354.586 481.222 353.455 481.541 352.42 481.771C351.463 481.996 350.486 482.126 349.503 482.16C348.642 482.199 347.779 482.119 346.94 481.921C346.104 481.723 345.302 481.401 344.562 480.966C343.747 480.542 343.039 479.937 342.493 479.198C342.09 478.646 341.893 477.971 341.936 477.289C342.009 476.577 342.292 475.903 342.749 475.353C343.321 474.646 343.998 474.032 344.756 473.532L341.83 471.843L343.554 470.853L346.453 472.524C347.813 471.85 349.242 471.325 350.714 470.959C352.114 470.602 353.538 470.345 354.975 470.19L356.469 473.045ZM348.036 478.243C348.685 478.62 349.436 478.784 350.184 478.712C351.191 478.593 352.184 478.371 353.145 478.049L348.495 475.397C346.792 476.487 346.639 477.436 348.036 478.243ZM364.337 479.605C363.627 479.218 362.811 479.072 362.012 479.189C360.911 479.33 359.825 479.57 358.767 479.905L363.382 482.557C365.356 481.361 365.674 480.377 364.337 479.605Z" fill="#CC8B09"/>
<path d="M353.8 485.218C353.853 485.094 353.8 483.547 353.8 483.547L355.7 484.767L354.878 486.031L353.8 485.218Z" fill="#CC8B09"/>
<path d="M370.33 486.279V484.608L366.22 484.918L368.58 486.526L370.33 486.279Z" fill="#CC8B09"/>
<path d="M370.675 480.135V478.447L367.599 479.561L370.675 480.135Z" fill="#CC8B09"/>
<path d="M357.963 480.047L358.988 479.065L362.595 481.558L362.365 482.292C362.365 482.292 359.713 481.16 359.589 481.09L357.963 480.047Z" fill="#CC8B09"/>
<path d="M348.513 474.769L353.295 477.483L354.276 476.776C354.276 476.776 353.675 476.086 353.631 476.015C353.198 475.528 352.694 475.108 352.137 474.769C351.783 474.707 349.485 473.69 349.485 473.69L348.513 474.769Z" fill="#CC8B09"/>
<path d="M356.469 473.045V471.375L354.277 470.659L353.8 471.967L353.915 472.568L356.469 473.045Z" fill="#CC8B09"/>
<path d="M341.865 471.834V470.163L344.42 470.437L343.589 472.055L341.865 471.834Z" fill="#CC8B09"/>
<path d="M341.964 477.518V475.75H344.881L344.174 477.306L342.936 478.721L341.964 477.518Z" fill="#CC8B09"/>
<path d="M356.469 471.375C356.09 471.369 355.711 471.399 355.338 471.463C354.834 471.534 354.259 471.631 353.631 471.764C353.004 471.896 352.341 472.073 351.669 472.276C351.004 472.476 350.355 472.721 349.724 473.01L354.692 475.848L355.576 475.538C356.832 475.114 358.025 474.76 359.112 474.469C360.162 474.187 361.237 474.01 362.321 473.938C363.313 473.873 364.308 473.938 365.283 474.133C366.276 474.348 367.228 474.721 368.102 475.238C368.966 475.671 369.703 476.319 370.242 477.121C370.42 477.406 370.54 477.724 370.595 478.057C370.649 478.389 370.638 478.729 370.56 479.057C370.347 479.785 369.944 480.444 369.393 480.966C368.712 481.643 367.952 482.236 367.13 482.734L370.286 484.555L368.571 485.572L365.389 483.733C363.87 484.473 362.283 485.066 360.65 485.501C358.942 485.969 357.197 486.295 355.435 486.473L353.764 483.494C354.231 483.483 354.697 483.447 355.161 483.388C355.859 483.303 356.552 483.182 357.238 483.026C358.007 482.867 358.812 482.654 359.66 482.407C360.492 482.174 361.304 481.878 362.091 481.523L357.15 478.676L356.504 478.897L355.833 479.101C354.712 479.48 353.574 479.802 352.42 480.064C351.462 480.286 350.486 480.416 349.503 480.453C348.642 480.484 347.78 480.404 346.94 480.215C346.103 480.014 345.302 479.689 344.562 479.251C343.745 478.83 343.037 478.225 342.493 477.483C342.09 476.928 341.893 476.25 341.936 475.565C342.007 474.855 342.29 474.183 342.749 473.638C343.321 472.931 343.998 472.317 344.756 471.817L341.83 470.128L343.554 469.129L346.453 470.809C347.811 470.128 349.24 469.601 350.714 469.235C352.116 468.887 353.54 468.63 354.975 468.466L356.469 471.375ZM348.036 476.573C348.686 476.946 349.437 477.107 350.184 477.032C351.193 476.922 352.186 476.7 353.145 476.369L348.495 473.717C346.792 474.813 346.639 475.765 348.036 476.573ZM364.337 477.934C363.627 477.547 362.811 477.401 362.012 477.518C360.912 477.66 359.826 477.896 358.767 478.226L363.382 480.878C365.356 479.687 365.674 478.706 364.337 477.934Z" fill="#F9CA06"/>
<path d="M356.92 499.733C380.759 499.733 400.085 488.576 400.085 474.813C400.085 461.051 380.759 449.894 356.92 449.894C333.08 449.894 313.754 461.051 313.754 474.813C313.754 488.576 333.08 499.733 356.92 499.733Z" fill="#DD990E"/>
<path d="M313.772 475.185V463.834L322.294 471.428L313.772 475.185Z" fill="#DD990E"/>
<path d="M400.085 464.126V474.813L395.727 479.437L393.597 467.211L400.085 464.126Z" fill="#DD990E"/>
<path d="M356.92 489.046C380.759 489.046 400.085 477.889 400.085 464.126C400.085 450.363 380.759 439.206 356.92 439.206C333.08 439.206 313.754 450.363 313.754 464.126C313.754 477.889 333.08 489.046 356.92 489.046Z" fill="#F9CB07"/>
<path d="M387.772 464.904C387.338 469.103 384.342 473.231 378.781 476.449C366.706 483.415 347.143 483.415 335.068 476.449C329.507 473.231 326.519 469.103 326.086 464.904C325.565 459.989 328.57 454.968 335.068 451.22C347.143 444.245 366.706 444.245 378.781 451.22C385.287 454.968 388.284 459.989 387.772 464.904Z" fill="#CC8B09"/>
<path d="M387.77 464.904C387.337 469.103 384.34 473.231 378.78 476.449C366.705 483.415 347.142 483.415 335.066 476.449C329.506 473.231 326.518 469.103 326.085 464.904C326.518 460.705 329.506 456.568 335.066 453.359C347.142 446.384 366.705 446.384 378.78 453.359C384.34 456.568 387.337 460.705 387.77 464.904Z" fill="#E8A30A"/>
<path d="M356.469 459.052C356.09 459.051 355.712 459.08 355.338 459.14C354.834 459.22 354.259 459.317 353.631 459.45C353.004 459.582 352.341 459.75 351.669 459.953C351.003 460.152 350.353 460.4 349.724 460.696L354.692 463.56L355.576 463.242C356.832 462.826 358.025 462.473 359.112 462.172C360.162 461.891 361.237 461.713 362.321 461.642C363.313 461.584 364.308 461.652 365.283 461.845C366.277 462.056 367.23 462.43 368.102 462.95C368.965 463.38 369.702 464.026 370.242 464.824C370.42 465.112 370.54 465.431 370.594 465.765C370.649 466.099 370.637 466.44 370.56 466.769C370.366 467.494 369.985 468.156 369.455 468.687C368.776 469.367 368.016 469.961 367.192 470.455L370.339 472.312L368.571 473.293L365.389 471.454C363.871 472.198 362.284 472.791 360.65 473.222C358.943 473.698 357.198 474.026 355.435 474.204L353.764 471.224C354.231 471.213 354.698 471.175 355.161 471.11C355.859 471.027 356.552 470.909 357.238 470.756C358.007 470.588 358.812 470.385 359.66 470.137C360.492 469.904 361.304 469.608 362.091 469.253L357.15 466.398L356.504 466.628L355.833 466.831C354.586 467.238 353.455 467.565 352.42 467.795C351.462 468.016 350.486 468.146 349.503 468.183C348.642 468.214 347.78 468.134 346.94 467.945C346.105 467.74 345.304 467.415 344.562 466.981C343.743 466.562 343.035 465.956 342.493 465.213C342.09 464.661 341.893 463.986 341.936 463.304C342.007 462.594 342.29 461.922 342.749 461.377C343.318 460.668 343.996 460.053 344.756 459.556L341.83 457.858L343.554 456.868L346.453 458.539C347.813 457.865 349.242 457.341 350.714 456.974C352.114 456.617 353.538 456.36 354.975 456.205L356.469 459.052ZM348.036 464.259C348.686 464.632 349.437 464.793 350.184 464.718C351.193 464.608 352.186 464.386 353.145 464.055L348.495 461.403C346.789 462.499 346.639 463.472 348.036 464.267V464.259ZM364.337 465.611C363.626 465.228 362.811 465.082 362.012 465.196C360.912 465.345 359.827 465.584 358.767 465.912L363.382 468.564C365.356 467.379 365.674 466.398 364.337 465.62V465.611Z" fill="#CC8B09"/>
<path d="M353.8 471.242C353.853 471.118 353.8 469.562 353.8 469.562L355.7 470.782L354.878 472.046L353.8 471.242Z" fill="#CC8B09"/>
<path d="M370.33 472.294V470.623L366.22 470.942L368.58 472.542L370.33 472.294Z" fill="#CC8B09"/>
<path d="M370.675 466.15V464.462L367.599 465.576L370.675 466.15Z" fill="#CC8B09"/>
<path d="M357.963 466.062L358.988 465.089L362.595 467.582L362.365 468.316C362.365 468.316 359.713 467.176 359.589 467.114C359.466 467.052 357.963 466.062 357.963 466.062Z" fill="#CC8B09"/>
<path d="M348.513 460.82L353.295 463.534L354.276 462.817C354.276 462.817 353.675 462.128 353.631 462.066C353.202 461.574 352.698 461.154 352.137 460.82C351.783 460.749 349.485 459.732 349.485 459.732L348.513 460.82Z" fill="#CC8B09"/>
<path d="M356.469 459.06V457.39L354.277 456.674L353.8 457.991L353.915 458.592L356.469 459.06Z" fill="#CC8B09"/>
<path d="M341.865 457.85V456.179L344.42 456.453L343.589 458.079L341.865 457.85Z" fill="#CC8B09"/>
<path d="M341.964 463.534V461.766H344.881L344.174 463.321L342.936 464.745L341.964 463.534Z" fill="#CC8B09"/>
<path d="M356.469 457.39C356.09 457.389 355.712 457.418 355.338 457.478C354.834 457.549 354.259 457.655 353.631 457.788C353.004 457.92 352.341 458.088 351.669 458.292C351.004 458.491 350.355 458.736 349.724 459.025L354.692 461.898L355.576 461.58C356.832 461.164 358.025 460.802 359.112 460.51C360.162 460.229 361.237 460.051 362.321 459.98C363.313 459.917 364.309 459.986 365.283 460.183C366.275 460.395 367.227 460.765 368.102 461.279C368.964 461.715 369.7 462.363 370.242 463.162C370.42 463.448 370.54 463.766 370.595 464.098C370.649 464.431 370.638 464.771 370.56 465.098C370.362 465.819 369.981 466.477 369.455 467.008C368.774 467.685 368.014 468.278 367.192 468.776L370.348 470.597L368.571 471.622L365.389 469.783C363.87 470.524 362.283 471.116 360.65 471.551C358.943 472.027 357.198 472.355 355.435 472.533L353.764 469.545C354.231 469.533 354.697 469.498 355.161 469.439C355.859 469.357 356.552 469.239 357.238 469.085C358.007 468.917 358.812 468.714 359.66 468.466C360.49 468.229 361.303 467.934 362.091 467.582L357.15 464.736L356.504 464.957L355.833 465.169C354.586 465.576 353.455 465.894 352.42 466.124C351.463 466.348 350.486 466.481 349.503 466.522C348.641 466.553 347.779 466.47 346.94 466.274C346.104 466.076 345.302 465.755 344.562 465.319C343.747 464.895 343.039 464.29 342.493 463.551C342.09 462.999 341.893 462.324 341.936 461.642C342.009 460.93 342.292 460.256 342.749 459.706C343.321 458.999 343.998 458.385 344.756 457.885L341.83 456.196L343.554 455.206L346.453 456.877C347.813 456.203 349.242 455.679 350.714 455.312C352.114 454.955 353.538 454.698 354.975 454.543L356.469 457.39ZM348.036 462.588C348.685 462.964 349.436 463.128 350.184 463.056C351.191 462.938 352.184 462.716 353.145 462.393L348.495 459.741C346.792 460.832 346.639 461.78 348.036 462.588ZM364.337 463.949C363.627 463.562 362.811 463.416 362.012 463.534C360.911 463.674 359.825 463.914 358.767 464.25L363.382 466.902C365.356 465.705 365.674 464.721 364.337 463.949Z" fill="#F9CA06"/>
<path opacity="0.15" d="M295.916 324.313L280.146 314.951L280.252 221.743L296.022 231.104L295.916 324.313Z" fill="black"/>
<path d="M283.779 227.984C264.747 239.821 249.542 266.676 249.542 288.856C249.542 311.035 264.747 320.344 283.779 310.213V227.984Z" fill="#DD990E"/>
<path d="M283.769 227.975L293.121 233.314L285.546 249.403L277.121 242.128L283.769 227.975Z" fill="#DD990E"/>
<path d="M270.906 318.063C270.712 317.975 258.53 310.991 258.53 310.991L265.045 305.793L270.906 318.063Z" fill="#DD990E"/>
<path d="M293.122 233.314C274.098 245.16 258.894 272.016 258.894 294.195C258.894 316.375 274.098 325.674 293.122 315.553V233.314Z" fill="#F9CB07"/>
<path d="M293.122 247.776C279.685 256.378 269.024 275.384 269.024 291.092C269.024 306.801 279.685 313.502 293.122 306.589V247.776Z" fill="#E8A30A"/>
<path d="M287.527 278.601C288.185 278.876 288.903 278.98 289.613 278.902C290.616 278.811 291.61 278.634 292.583 278.372L293.122 278.248V272.741C292.54 272.869 291.937 272.869 291.354 272.741C290.833 272.599 290.568 272.086 290.568 271.202C290.602 270.317 290.849 269.454 291.287 268.685C291.726 267.915 292.343 267.263 293.087 266.782V262.115C292.139 262.784 291.251 263.535 290.435 264.36C289.509 265.299 288.694 266.34 288.004 267.463C287.329 268.574 286.789 269.761 286.395 270.999C286.009 272.229 285.812 273.511 285.812 274.8C285.773 275.652 285.918 276.502 286.236 277.293C286.488 277.875 286.948 278.342 287.527 278.601Z" fill="#F9CA06"/>
<path d="M293.123 284.975C292.583 285.188 292.027 285.356 291.461 285.479C290.787 285.617 290.105 285.709 289.419 285.753C288.893 285.785 288.365 285.758 287.845 285.673C287.524 285.625 287.211 285.53 286.917 285.391L284.875 291.172C286.204 291.461 287.578 291.479 288.915 291.225C290.373 290.961 291.789 290.5 293.123 289.855V284.975Z" fill="#F9CA06"/>
<path opacity="0.3" d="M191.896 527.12L31.5032 434.53C29.2755 433.248 29.5584 430.994 32.122 429.535L121.751 377.786C124.314 376.301 128.195 376.142 130.414 377.423L290.78 470.031C292.998 471.313 292.724 473.567 290.161 475.034L200.559 526.775C197.96 528.26 194.115 528.419 191.896 527.12Z" fill="#D6D8E5"/>
<path d="M296.021 466.575L294.342 467.185L134.126 374.683C131.907 373.401 128.027 373.56 125.463 375.037L35.8344 426.786C35.4669 426.996 35.1231 427.245 34.809 427.529L33.7217 426.645V429.579C33.7477 430.045 33.9007 430.495 34.164 430.88C34.4274 431.264 34.791 431.57 35.2156 431.763L195.608 524.397C197.827 525.679 201.708 525.511 204.271 524.035L293.9 472.312C295.35 471.428 296.066 470.394 296.021 469.386V466.575Z" fill="#DADCE5"/>
<path d="M195.608 521.568L35.2151 428.996C32.9875 427.714 33.2703 425.46 35.8339 424.001L125.471 372.217C128.035 370.732 131.916 370.573 134.134 371.854L294.518 464.462C296.746 465.744 296.463 467.998 293.899 469.465L204.271 521.206C201.707 522.7 197.826 522.85 195.608 521.568Z" fill="#F8F9FF"/>
<path d="M88.6099 444.086L57.8291 426.326L64.9541 422.216L95.7261 439.975L88.6099 444.086Z" fill="#DADCE5"/>
<path d="M149.958 407.939L119.187 390.171L126.303 386.06L157.075 403.828L149.958 407.939Z" fill="#DADCE5"/>
<path d="M125.888 465.62L95.125 447.852L102.241 443.741L133.013 461.509L125.888 465.62Z" fill="#DADCE5"/>
<path d="M163.184 487.145L132.403 469.377L139.528 465.266L170.3 483.034L163.184 487.145Z" fill="#DADCE5"/>
<path d="M200.471 508.671L169.699 490.902L176.815 486.792L207.587 504.56L200.471 508.671Z" fill="#DADCE5"/>
<path opacity="0.5" d="M257.311 472.754C264.483 472.754 270.297 469.398 270.297 465.258C270.297 461.117 264.483 457.761 257.311 457.761C250.139 457.761 244.325 461.117 244.325 465.258C244.325 469.398 250.139 472.754 257.311 472.754Z" fill="#DADCE5"/>
<path opacity="0.5" d="M247.253 466.937C254.424 466.937 260.238 463.581 260.238 459.441C260.238 455.301 254.424 451.944 247.253 451.944C240.081 451.944 234.267 455.301 234.267 459.441C234.267 463.581 240.081 466.937 247.253 466.937Z" fill="#DADCE5"/>
</svg>
