<svg width="60" height="59" viewBox="0 0 60 59" fill="none" xmlns="http://www.w3.org/2000/svg">
<path d="M30 59C46.5685 59 60 45.7924 60 29.5C60 13.2076 46.5685 0 30 0C13.4315 0 0 13.2076 0 29.5C0 45.7924 13.4315 59 30 59Z" fill="#1A3954"/>
<path d="M33.4356 39.1357C33.4356 38.9008 33.1952 38.7834 33.0149 38.9008C32.5942 39.1357 31.813 39.3118 30.2505 39.3705C26.2241 39.4292 22.8587 35.3782 19.9741 31.7382C18.5919 29.9769 16.9693 29.2724 15.6471 28.8614C18.051 28.5091 21.7169 27.1001 21.7169 23.3426C21.7169 19.0568 17.2697 18 14.2048 18C12.6423 18 11.0197 18 10.5991 18.0587C8.85628 18.0587 8.79618 18.6458 9.21686 18.6458C10.4789 18.6458 10.7794 19.3503 10.7794 19.9961L10.8995 26.2781C10.8995 26.4543 11.0798 26.5717 11.2601 26.5717C11.7409 26.4543 12.462 26.2194 12.8827 26.0433C13.1231 25.9259 13.3034 25.691 13.2433 25.4562C13.1832 24.1646 13.1832 20.2897 13.1832 19.409C13.1832 19.3503 13.1832 19.2916 13.1832 19.1742C15.2866 18.9394 18.712 19.2329 18.7721 23.3426C18.8322 27.4523 15.4669 27.922 14.325 27.9807C13.7842 27.9807 13.4236 27.9807 13.1231 28.0394C12.7625 28.0394 12.402 28.0394 11.9212 28.0982C11.0197 28.0982 11.0798 28.6265 11.3202 28.9201C11.4404 29.0375 11.6808 29.0962 12.1015 29.0962C12.1616 29.0962 12.1616 29.0962 12.2217 29.0962C15.4669 29.0375 17.1495 32.795 18.2914 34.7324C22.3178 41.5428 28.0269 40.9557 30.1303 40.7209C32.3539 40.3099 33.4356 39.5466 33.4356 39.1357Z" fill="white"/>
<path d="M24.4814 18.5284H26.4045V29.0375H24.4814V18.5284Z" fill="white"/>
<path d="M38.0632 27.4524V29.0375H29.0488V27.8046L35.419 20.1136H29.2291V18.5284H37.9431V19.7613L31.5729 27.4524H38.0632Z" fill="white"/>
<path d="M50.6227 18.5284V32.8537H48.6996V27.4523C48.2789 27.9807 47.7381 28.3917 47.077 28.6853C46.4159 28.9788 45.7549 29.0962 44.9736 29.0962C43.952 29.0962 42.9905 28.8614 42.1491 28.4504C41.3078 27.9807 40.7068 27.3936 40.226 26.5717C39.7453 25.7497 39.5049 24.8104 39.5049 23.7536C39.5049 22.6968 39.7453 21.7574 40.226 20.9355C40.7068 20.1136 41.3078 19.5265 42.1491 19.0568C42.9905 18.5871 43.8919 18.411 44.9736 18.411C45.7549 18.411 46.476 18.5871 47.1371 18.8806C47.7982 19.1742 48.339 19.6439 48.7597 20.1723V18.5284H50.6227ZM46.9568 26.9827C47.4977 26.6891 47.9183 26.2194 48.2789 25.691C48.5794 25.1039 48.7597 24.4581 48.7597 23.7536C48.7597 23.0491 48.5794 22.4033 48.2789 21.8162C47.9784 21.2878 47.5578 20.8181 46.9568 20.5245C46.4159 20.231 45.815 20.0549 45.0938 20.0549C44.4328 20.0549 43.7717 20.231 43.2308 20.5245C42.69 20.8181 42.2693 21.2878 41.9087 21.8162C41.6082 22.4033 41.428 23.0491 41.428 23.7536C41.428 24.4581 41.6082 25.1039 41.9087 25.691C42.2092 26.2781 42.6299 26.6891 43.2308 26.9827C43.7717 27.2762 44.3727 27.4523 45.0938 27.4523C45.815 27.4523 46.4159 27.3349 46.9568 26.9827Z" fill="white"/>
</svg>
