<svg width="110" height="75" viewBox="0 0 110 75" fill="none" xmlns="http://www.w3.org/2000/svg">
<path d="M107.925 8.77589C107.912 10.9778 106.63 12.4704 104.32 13.3614C102.82 13.9398 102.719 14.3468 103.887 15.3688C105.496 16.7759 107.086 18.1985 108.716 19.5867C109.567 20.3107 109.46 20.9114 108.619 21.5748C106.837 22.9819 105.079 24.4126 103.333 25.8524C102.193 26.7919 102.237 26.9602 103.636 27.585C106.49 28.8603 107.602 31.3177 106.406 33.7064C105.129 36.2549 101.914 37.5585 98.9621 36.6808C97.3866 36.2123 96.2398 35.3128 95.5929 33.9778C95.0319 32.8206 94.7435 32.7776 93.6765 33.6446C91.8571 35.123 90.0159 36.5825 88.2207 38.0819C87.3753 38.7883 86.7421 38.7763 85.9245 38.0012C84.3303 36.4893 82.6018 35.0809 80.9798 33.5896C79.6623 32.3779 79.8274 31.9219 81.6575 31.3649C84.297 30.5615 86.1679 27.9994 85.6413 25.9091C85.0353 23.5045 82.5392 21.7229 79.7724 21.9192C77.2737 22.0965 75.5108 23.276 74.5261 25.2624C73.8035 26.7202 73.3889 26.7898 72.0815 25.6429C70.3297 24.1065 68.6224 22.5332 66.8524 21.0127C66.1035 20.3695 66.2126 19.8851 66.9368 19.3097C68.8057 17.824 70.6479 16.3134 72.487 14.8011C73.5975 13.8882 73.5641 13.7504 72.2088 13.1583C69.5571 11.9998 68.3659 9.80643 69.1239 7.4787C69.8535 5.23856 72.4497 3.52228 75.1165 3.67644C77.4757 3.81298 79.2038 4.84651 80.138 6.74013C80.6334 7.74405 80.9828 7.84195 81.9281 7.08665C83.7021 5.66966 85.4251 4.20716 87.184 2.77643C88.3848 1.79956 88.6873 1.80084 89.8523 2.82365C91.4571 4.23249 93.0236 5.67268 94.6289 7.08151C95.6404 7.96907 96.0898 7.90293 96.7397 6.75902C97.5739 5.29007 98.8773 4.3072 100.736 3.90528C104.495 3.0933 107.937 5.43522 107.925 8.77589Z" fill="#0E538B"/>
<path d="M93.4806 8.43958C93.4806 8.43958 95.5662 8.18494 95.6859 7.6181C95.8056 7.05126 95.7637 6.6519 94.7996 6.47283C93.8356 6.29376 92.4126 6.4389 91.5799 6.67121C90.7472 6.90353 89.5448 7.79374 89.4903 7.96122C89.2908 8.57143 90.7477 8.01617 91.4683 7.77612C92.1889 7.5365 93.0307 7.32652 93.0686 7.65417C93.1059 7.98182 91.6854 8.35242 91.5824 8.73976C91.4794 9.1271 93.4806 8.43958 93.4806 8.43958Z" fill="#FAB9AF"/>
<path d="M48.4824 47.4359C48.5062 46.1018 48.6087 44.7647 48.5294 43.4348C48.4663 42.3815 48.9925 42.0581 50.1241 42.0831C53.0081 42.1466 55.8931 42.184 58.778 42.22C60.6363 42.2432 60.9343 41.8821 60.3414 40.3749C59.2522 37.6036 60.2268 34.818 62.8386 33.2383C65.3625 31.7118 68.8842 31.7955 71.3319 33.4397C73.833 35.1199 74.6329 37.9776 73.3578 40.6768C72.7534 41.9564 73.0877 42.4103 74.7198 42.4416C77.5538 42.4961 80.3882 42.5124 83.2222 42.5665C85.0219 42.6009 85.3512 42.9006 85.3229 44.3992C85.2739 46.9812 85.2042 49.5632 85.1643 52.1451C85.1446 53.4183 85.4365 53.5944 86.858 53.1328C89.6536 52.225 92.2906 52.6493 94.3292 54.3463C96.329 56.011 96.8148 58.2718 95.9573 60.5811C95.0913 62.9132 93.1658 64.3126 90.3025 64.7278C89.0113 64.915 87.7968 64.6673 86.6035 64.2581C85.2254 63.7849 84.8947 63.9644 84.8497 65.2422C84.7558 67.9092 84.6477 70.5771 84.6356 73.2445C84.6306 74.4219 84.0938 74.8445 82.7197 74.7989C79.6858 74.698 76.6473 74.7028 73.6114 74.6375C71.7308 74.5971 71.3586 74.0492 72.1812 72.6262C74.5072 68.6049 71.904 64.1924 66.9481 63.7557C61.9044 63.3117 58.1357 67.646 59.941 71.8219C60.0975 72.1839 60.3425 72.5193 60.4884 72.8838C60.8419 73.7658 60.5076 74.3975 59.3678 74.3983C55.9264 74.4005 52.4844 74.3433 49.044 74.2734C48.1946 74.2562 47.8674 73.8298 47.8951 73.0646C47.9971 70.2688 47.9764 67.4691 48.0976 64.6742C48.1451 63.58 47.6679 63.2833 46.4958 63.5229C45.5071 63.7252 44.4891 63.7041 43.4993 63.5933C39.6786 63.1665 37.5763 60.764 37.9925 57.3671C38.353 54.4231 41.2622 52.4118 44.8754 52.6085C48.3708 52.7991 48.3708 52.7991 48.4284 49.7586C48.4431 48.9839 48.4562 48.2093 48.4703 47.4347C48.4744 47.4359 48.4784 47.4359 48.4824 47.4359Z" fill="#0B4870"/>
<path d="M11.5235 15.5305C11.5457 14.2827 11.5619 13.0349 11.5922 11.7875C11.63 10.2142 11.9573 9.93982 13.8565 9.97031C16.5374 10.0132 19.2179 10.0884 21.8988 10.1386C23.9394 10.1764 24.2576 9.80327 23.6228 8.19477C22.6432 5.7133 23.2138 3.48433 25.4039 1.67658C27.4778 -0.0354107 30.0305 -0.411119 32.7215 0.434356C35.504 1.3086 36.9396 3.13437 37.2709 5.61154C37.4057 6.62018 37.1265 7.57646 36.7154 8.51039C36.0847 9.94327 36.416 10.3572 38.2576 10.3847C41.0406 10.4259 43.824 10.4431 46.6065 10.4968C48.3911 10.5311 48.6223 10.748 48.5951 12.2465C48.5481 14.828 48.4789 17.4091 48.4345 19.9911C48.4123 21.2788 48.7198 21.4935 50.1115 21.0392C51.4866 20.5901 52.8808 20.4995 54.2862 20.7571C58.2276 21.4806 60.4934 24.9179 59.3209 28.3252C58.1392 31.759 54.0832 33.5109 50.2125 32.2593C48.3613 31.6603 48.18 31.7693 48.1436 33.5045C48.0951 35.8275 48.0002 38.1514 48.0214 40.474C48.0305 41.4775 47.9154 41.7944 46.4747 41.6698C43.565 41.4182 40.6129 41.4903 37.6784 41.4985C36.4397 41.5019 36.0266 41.3268 36.5806 40.1837C37.9218 37.4171 36.8811 34.3156 34.1749 32.5362C31.5374 30.8023 27.8288 30.7602 25.1241 32.434C22.375 34.1353 21.259 37.1887 22.4912 40.0257C22.9411 41.0614 22.6709 41.298 21.4479 41.2958C18.214 41.2902 14.9771 40.9931 11.7472 41.2967C10.8327 41.3826 11.0433 40.866 11.0488 40.4839C11.0827 37.9882 11.1422 35.493 11.1882 32.9974C11.2225 31.1497 11.1235 31.1021 9.12281 31.6573C6.66861 32.3378 4.40176 31.9982 2.46112 30.5408C0.396767 28.9907 -0.364238 26.9897 0.160436 24.7105C1.0285 20.9413 5.20468 18.9708 9.34955 20.3071C11.2811 20.9297 11.4003 20.8662 11.4407 19.1456C11.4689 17.9412 11.4851 16.7363 11.5068 15.5314C11.5129 15.5305 11.5184 15.5305 11.5235 15.5305Z" fill="#0B4870"/>
<path d="M11.5396 47.3632C11.5629 46.072 11.6664 44.777 11.5856 43.4901C11.5113 42.317 12.0754 42.0168 13.3697 42.0658C16.1501 42.171 18.9366 42.1727 21.7211 42.1976C23.6915 42.2152 24.403 41.3667 23.7061 39.8132C22.6815 37.5275 23.1638 35.4651 25.1065 33.7252C26.9506 32.0729 29.2968 31.6568 31.806 32.3876C34.4072 33.1451 35.7237 34.8485 36.1241 37.1161C36.2882 38.0445 36.0337 38.911 35.6595 39.7638C34.8223 41.6725 35.3995 42.3788 37.834 42.4084C40.5675 42.4415 43.3014 42.5063 46.0349 42.4892C47.1625 42.4823 47.5316 42.8198 47.4847 43.7786C47.3731 46.0574 47.3311 48.341 47.3534 50.6219C47.3614 51.4485 47.0029 51.6568 46.1131 51.6194C45.0067 51.573 43.8933 51.427 42.7853 51.6456C39.1838 52.3554 36.5069 55.4359 36.8993 58.4262C37.4128 62.3384 40.0559 64.4746 44.4043 64.4922C47.0605 64.5034 47.061 64.5034 47.0196 66.7388C46.9827 68.7188 46.9145 70.6991 46.9231 72.6791C46.9267 73.4632 46.5737 73.7547 45.6688 73.7354C42.5813 73.6693 39.4933 73.6238 36.4054 73.5946C35.1081 73.5821 35.0091 73.1914 35.5383 72.245C37.6522 68.4646 35.8443 64.2964 31.5727 63.0744C28.6231 62.2306 25.8493 62.6918 23.7708 64.6425C21.6504 66.6328 21.1984 69.0799 22.3331 71.6365C23.1244 73.4189 23.1618 73.4147 20.9853 73.3932C18.3023 73.367 15.6179 73.2798 12.9369 73.3271C11.5659 73.3511 11.0609 73.0042 11.1256 71.7885C11.2629 69.2096 11.2462 66.6242 11.2765 64.0414C11.2932 62.627 10.5398 62.1211 9.00867 62.6167C6.18784 63.5295 3.72152 63.1392 1.69301 61.2357C-0.201174 59.458 -0.430424 56.9194 0.965343 54.5973C2.23335 52.4868 5.57328 51.455 8.42996 52.2966C8.81122 52.4091 9.17026 52.5847 9.55758 52.6731C10.7312 52.9411 11.4245 52.5237 11.4659 51.4957C11.5209 50.1191 11.523 48.7412 11.5477 47.3637C11.5447 47.3632 11.5422 47.3632 11.5396 47.3632Z" fill="#0B4870"/>
</svg>
