<svg width="126" height="87" viewBox="0 0 126 87" fill="none" xmlns="http://www.w3.org/2000/svg">
<path d="M11.182 64.7651L9.87556 64.1351C9.51444 64.6243 9.07501 65.0631 8.64833 65.3939C8.29224 65.6698 7.74538 65.6632 7.39838 65.3788L7.35658 65.3445C6.97425 65.0313 6.9831 64.5059 7.38043 64.2064C7.78517 63.9011 8.17803 63.5194 8.48324 63.0618C8.92762 62.3953 8.9293 61.7932 8.37925 61.5281C7.85679 61.276 7.27715 61.4912 6.35625 62.1907C5.02686 63.2033 3.77005 63.7253 2.43619 63.0821C1.22611 62.4986 0.760677 61.3159 1.30634 59.9255L0 59.2955L0.764188 58.1494L1.97427 58.733C2.2802 58.3185 2.58023 58.0014 2.86686 57.7532C3.21713 57.4501 3.79046 57.4461 4.1503 57.7411C4.52235 58.0461 4.5241 58.5531 4.15238 58.8585C3.8738 59.0874 3.5713 59.3905 3.29608 59.8032C2.78917 60.5633 3.01049 60.9945 3.39553 61.1802C3.84932 61.3991 4.41102 61.1291 5.51391 60.3472C7.01939 59.2342 8.15004 59.0376 9.38755 59.6344C10.6115 60.2246 11.1653 61.4654 10.5435 62.9428L11.9462 63.6193L11.182 64.7651Z" fill="#FFCE88"/>
<path d="M74.0195 82.5983C77.3137 78.8279 79.9594 78.7951 79.9594 78.7951C79.9594 78.7951 81.1602 72.171 80.2021 69.3531C79.2442 66.5351 74.9122 69.0064 74.9122 69.0064C74.9122 69.0064 80.6557 59.432 78.3 58.3565C73.9121 56.3533 67.0002 66.509 67.0002 66.509C67.0002 66.509 68.6191 62.0388 65.5161 62.0554C60.8366 62.0804 60.4318 72.3297 60.4318 72.3297C60.4318 72.3297 59.5092 70.3104 56.622 71.4672C53.5122 72.7133 52.6698 80.2172 52.4932 86.016H68.8861C71.2313 84.7945 73.1472 83.5968 74.0195 82.5983Z" fill="#2993F2"/>
<path d="M67.5739 65.6925C67.5739 65.6925 67.7665 60.5987 64.6635 60.6153C59.984 60.6403 60.4321 72.3297 60.4321 72.3297C60.4321 72.3297 58.4774 69.0223 55.5902 70.1792C52.4215 71.4489 52.0452 79.7428 52.1693 86.016H57.6149L78.3002 58.3565C73.9123 56.3532 67.5739 65.6925 67.5739 65.6925Z" fill="#0E538B"/>
<path d="M93.0547 85.6849C93.0547 85.6849 107.993 87.1477 111.612 86.0698C115.23 84.992 112.834 83.2686 112.834 83.2686C112.834 83.2686 120.487 82.4373 121.225 80.5004C121.963 78.5634 118.342 78.551 118.342 78.551C118.342 78.551 126.024 74.9467 125.162 73.549C123.555 70.9457 114.936 74.4977 114.936 74.4977C114.936 74.4977 117.912 72.4633 116.12 71.4463C113.418 69.9125 108.497 75.6711 108.497 75.6711C108.497 75.6711 108.89 74.205 106.701 73.9149C102.774 73.3945 93.0547 85.6849 93.0547 85.6849Z" fill="#2993F2"/>
<path d="M106.697 72.833C108.886 73.1231 108.497 75.6713 108.497 75.6713C108.497 75.6713 113.586 68.8027 116.288 70.3364C118.08 71.3534 115.639 74.2182 115.639 74.2182C115.639 74.2182 123.555 70.9458 125.161 73.5492L94.4844 84.8707C95.6109 83.4308 103.028 72.347 106.697 72.833Z" fill="#0E538B"/>
<path d="M92.9615 85.87C92.9615 85.87 106.555 77.8265 108.511 74.2905C110.466 70.7543 106.721 71.049 106.721 71.049C106.721 71.049 112.313 64.787 110.986 62.6233C109.659 60.4597 106.605 63.0819 106.605 63.0819C106.605 63.0819 109.433 54.4697 107.304 53.9228C103.338 52.904 99.4579 63.8099 99.4579 63.8099C99.4579 63.8099 97.9765 57.7763 95.4494 58.2246C91.6384 58.9007 95.4411 67.8209 95.4411 67.8209C95.4411 67.8209 94.3167 64.9152 92.1866 66.2631C88.3647 68.6815 92.9615 85.87 92.9615 85.87Z" fill="#2993F2"/>
<path d="M88.4689 66.4023C90.869 65.4368 91.3512 63.4053 91.3512 63.4053C91.3512 63.4053 91.3674 58.3615 95.1786 57.6854C97.7057 57.237 99.4748 61.2893 99.4748 61.2893C99.4748 61.2893 103.339 52.9042 107.305 53.9229L92.9212 85.735C92.4196 83.7067 85.6101 67.5524 88.4689 66.4023Z" fill="#0E538B"/>
<path d="M93.5648 83.2827H66.1532C65.279 83.2827 64.5703 82.68 64.5703 81.9366C64.5703 81.1933 65.279 80.5906 66.1532 80.5906H93.5648C94.4389 80.5906 95.1476 81.1933 95.1476 81.9366C95.1476 82.68 94.4389 83.2827 93.5648 83.2827Z" fill="#AAAAAA"/>
<path d="M89.7298 80.8081H62.3182C61.444 80.8081 60.7354 80.2054 60.7354 79.4621C60.7354 78.7187 61.444 78.116 62.3182 78.116H89.7298C90.6039 78.116 91.3126 78.7187 91.3126 79.4621C91.3126 80.2054 90.6038 80.8081 89.7298 80.8081Z" fill="#D3D3D3"/>
<path d="M86.5336 78.1273H59.1219C58.2477 78.1273 57.5391 77.5246 57.5391 76.7812C57.5391 76.0378 58.2477 75.4351 59.1219 75.4351H86.5336C87.4078 75.4351 88.1165 76.0378 88.1165 76.7812C88.1165 77.5247 87.4078 78.1273 86.5336 78.1273Z" fill="#AAAAAA"/>
<path d="M105.951 75.0222C105.951 81.4593 99.8149 86.6776 92.2454 86.6776C84.6762 86.6776 78.54 81.4593 78.54 75.0222C78.54 68.585 84.6761 63.3667 92.2454 63.3667C99.8149 63.3668 105.951 68.585 105.951 75.0222Z" fill="#FFCE88"/>
<path d="M103.745 75.0222C103.745 80.4239 98.5964 84.8027 92.2448 84.8027C85.8931 84.8027 80.7441 80.4238 80.7441 75.0222C80.7441 69.6206 85.8932 65.2417 92.2448 65.2417C98.5964 65.2417 103.745 69.6207 103.745 75.0222Z" fill="#FFBE55"/>
<path d="M88.6848 81.3022L89.3393 79.7671C88.5368 79.4846 87.7926 79.1074 87.2113 78.7207C86.7261 78.398 86.6189 77.8104 86.9663 77.3777L87.008 77.3255C87.3907 76.8486 88.1714 76.7458 88.7001 77.1077C89.2391 77.4764 89.8888 77.8158 90.6324 78.0451C91.7153 78.379 92.608 78.252 92.8835 77.6057C93.1453 76.9917 92.7025 76.4164 91.4688 75.5788C89.6839 74.3704 88.6414 73.1348 89.3096 71.5674C89.9159 70.1455 91.5691 69.3939 93.7467 69.6814L94.4011 68.1464L96.2631 68.7205L95.6569 70.1424C96.3365 70.3817 96.8708 70.6355 97.2998 70.8896C97.8241 71.2003 97.9526 71.8141 97.5922 72.2629C97.2197 72.7269 96.4687 72.8371 95.9366 72.504C95.5377 72.2544 95.024 71.9949 94.3533 71.7881C93.1183 71.4073 92.5265 71.7367 92.3337 72.1891C92.1063 72.7223 92.6266 73.2667 94.0212 74.2817C95.9928 75.6575 96.5258 76.8274 95.9059 78.2816C95.2926 79.7197 93.5722 80.5786 91.2495 80.228L90.5468 81.8762L88.6848 81.3022Z" fill="white"/>
<path d="M42.8174 85.4214C42.8174 85.4214 21.5195 76.4908 17.8568 71.8329C14.1941 67.175 19.5783 66.9111 19.5783 66.9111C19.5783 66.9111 10.074 59.0502 11.4112 55.7409C12.7484 52.4316 17.7381 55.5938 17.7381 55.5938C17.7381 55.5938 11.5605 43.8975 14.4421 42.7345C19.8092 40.5683 27.3385 53.0159 27.3385 53.0159C27.3385 53.0159 25.7204 47.6085 29.4163 47.7842C34.99 48.0491 34.7597 60.2813 34.7597 60.2813C34.7597 60.2813 35.3892 55.5913 38.7487 57.1147C44.7762 59.8482 42.8174 85.4214 42.8174 85.4214Z" fill="#0E538B"/>
<path d="M39.9608 55.2226C37.3374 53.9846 34.7247 57.603 34.7247 57.603C34.7247 57.603 34.9894 48.0492 29.4156 47.7842C25.7197 47.6085 27.3378 53.0159 27.3378 53.0159C27.3378 53.0159 19.8085 40.5683 14.4414 42.7345L42.8412 85.2225C43.0419 82.2555 45.1576 57.6751 39.9608 55.2226Z" fill="#2993F2"/>
<path d="M42.2664 85.5321C42.2664 85.5321 24.8475 87.3719 20.3374 85.7323C15.8273 84.0927 19.0595 82.0675 19.0595 82.0675C19.0595 82.0675 9.37524 80.4488 8.62804 77.9225C7.88092 75.3963 12.5041 75.6444 12.5041 75.6444C12.5041 75.6444 3.06235 70.4837 4.30394 68.7626C6.6166 65.5567 17.2605 70.7189 17.2605 70.7189C17.2605 70.7189 13.6675 67.9053 16.0567 66.7377C19.66 64.9768 25.3609 72.6861 25.3609 72.6861C25.3609 72.6861 25.0067 70.7859 27.83 70.5753C32.8957 70.1972 42.2664 85.5321 42.2664 85.5321Z" fill="#0E538B"/>
<path d="M27.9442 69.1946C25.1209 69.4052 25.3607 72.6861 25.3607 72.6861C25.3607 72.6861 19.5566 63.5479 15.9534 65.3087C13.5642 66.4762 16.391 70.3108 16.391 70.3108C16.391 70.3108 6.61638 65.5568 4.30371 68.7627L42.3191 85.45C41.0266 83.5299 32.676 68.8415 27.9442 69.1946Z" fill="#2993F2"/>
<path d="M91.4736 13.8622L90.8526 15.1786L88.2515 14.5629L87.0643 16.3924L85.0292 16.2022L84.916 17.0782L87.638 17.3326L88.763 15.5988L91.4688 16.2394L92.4033 14.2585L91.4736 13.8622Z" fill="#2993F2"/>
<path d="M100.724 49.1268L101.364 47.7775C100.66 47.5046 100.011 47.1488 99.5079 46.7891C99.0877 46.4888 99.0141 45.9628 99.3393 45.5868L99.3784 45.5415C99.7367 45.1272 100.435 45.0565 100.893 45.3927C101.359 45.7354 101.925 46.0549 102.579 46.2789C103.531 46.6051 104.33 46.5158 104.599 45.9477C104.855 45.4081 104.482 44.884 103.415 44.1055C101.87 42.9819 100.987 41.854 101.64 40.4764C102.232 39.2266 103.732 38.6015 105.66 38.9156L106.3 37.5663L107.936 38.1272L107.344 39.377C107.94 39.6082 108.407 39.8484 108.779 40.0862C109.234 40.3768 109.326 40.9266 108.989 41.3166C108.64 41.7198 107.967 41.7979 107.506 41.4871C107.16 41.2541 106.712 41.0094 106.122 40.8074C105.037 40.4355 104.498 40.7129 104.31 41.1106C104.087 41.5792 104.531 42.0777 105.735 43.0187C107.439 44.2962 107.871 45.3521 107.265 46.6302C106.666 47.8943 105.103 48.6131 103.048 48.239L102.361 49.6876L100.724 49.1268Z" fill="#D3D3D3"/>
<path d="M65.5961 85.8794H33.3988C32.1161 85.8794 31.0762 84.9951 31.0762 83.9042C31.0762 82.8134 32.1161 81.9291 33.3988 81.9291H65.5961C66.8788 81.9291 67.9187 82.8134 67.9187 83.9042C67.9187 84.9951 66.8788 85.8794 65.5961 85.8794Z" fill="#FFCE88"/>
<path d="M70.4347 81.9691H40.1243C38.8416 81.9691 37.8018 81.0848 37.8018 79.9939C37.8018 78.9031 38.8416 78.0188 40.1243 78.0188H70.4347C71.7174 78.0188 72.7573 78.9031 72.7573 79.9939C72.7573 81.0848 71.7174 81.9691 70.4347 81.9691Z" fill="#FFBE55"/>
<path d="M66.1174 78.0173H37.1233C35.8697 78.0173 34.8535 77.1532 34.8535 76.0872V75.9958C34.8535 74.9298 35.8697 74.0656 37.1233 74.0656H66.1175C67.3711 74.0656 68.3872 74.9298 68.3872 75.9958V76.0872C68.3871 77.1532 67.371 78.0173 66.1174 78.0173Z" fill="#FFCE88"/>
<path d="M66.088 74.0763H36.9582C35.7262 74.0763 34.7275 73.2271 34.7275 72.1795V72.023C34.7275 70.9754 35.7262 70.1261 36.9582 70.1261H66.088C67.3199 70.1261 68.3187 70.9753 68.3187 72.023V72.1795C68.3187 73.2271 67.3199 74.0763 66.088 74.0763Z" fill="#FFBE55"/>
<path d="M67.0476 70.3583H37.6508C36.3679 70.3583 35.3281 69.4739 35.3281 68.3831C35.3281 67.2922 36.3679 66.4078 37.6508 66.4078H67.0476C68.3304 66.4078 69.3702 67.2922 69.3702 68.3831C69.3702 69.4739 68.3304 70.3583 67.0476 70.3583Z" fill="#FFCE88"/>
<path d="M65.7792 66.4578H36.3822C35.0995 66.4578 34.0596 65.5734 34.0596 64.4826C34.0596 63.3916 35.0995 62.5074 36.3822 62.5074H65.7792C67.0619 62.5074 68.1018 63.3916 68.1018 64.4826C68.1018 65.5734 67.0619 66.4578 65.7792 66.4578Z" fill="#FFBE55"/>
<path d="M67.2521 58.8263H39.0942C37.8368 58.8263 36.8174 57.9594 36.8174 56.89V56.812C36.8174 55.7427 37.8368 54.8759 39.0942 54.8759H67.2521C68.5096 54.8759 69.5289 55.7427 69.5289 56.812V56.89C69.5289 57.9594 68.5095 58.8263 67.2521 58.8263Z" fill="#FFBE55"/>
<path d="M69.7745 62.6244H42.7233C41.4889 62.6244 40.4883 61.7734 40.4883 60.7237V60.5747C40.4883 59.525 41.4889 58.6741 42.7233 58.6741H69.7745C71.0088 58.6741 72.0093 59.525 72.0093 60.5747V60.7237C72.0093 61.7734 71.0087 62.6244 69.7745 62.6244Z" fill="#FFCE88"/>
<path d="M38.4719 66.3235C44.0085 70.6659 44.3574 78.0031 39.2512 82.7117C34.145 87.4202 25.5172 87.7168 19.9808 83.3744C14.4442 79.0319 14.0953 71.6947 19.2014 66.9863C24.3076 62.2777 32.9353 61.981 38.4719 66.3235Z" fill="#FFCE88"/>
<path d="M36.9842 67.695C41.6301 71.339 41.9229 77.4959 37.6381 81.4469C33.3533 85.3979 26.1136 85.647 21.4676 82.0029C16.8217 78.359 16.5289 72.2022 20.8137 68.2511C25.0985 64.3 32.3382 64.0511 36.9842 67.695Z" fill="#FFBE55"/>
<path d="M36.7312 77.8882C36.9944 78.1821 36.976 78.5933 36.6873 78.8694C36.1206 79.4108 35.1943 80.0657 34.0305 80.5516C32.3282 81.2624 30.3727 81.4797 28.5267 80.9437C27.3731 80.6087 26.2738 79.9243 25.4463 78.9903L24.4405 79.4102C24.0986 79.5529 23.6853 79.433 23.5175 79.1423L23.5048 79.1201C23.337 78.8294 23.4781 78.478 23.8199 78.3353L24.6454 77.9907C24.4801 77.7601 24.3658 77.6174 24.2898 77.4858C24.1632 77.2665 24.037 76.9925 23.9239 76.6856L23.0728 77.0409C22.7309 77.1837 22.3177 77.0637 22.1499 76.773C21.982 76.4823 22.1231 76.1309 22.465 75.9881L23.4968 75.5573C23.198 74.4298 23.2464 73.2935 23.6401 72.3122C24.3099 70.6443 25.7857 69.3747 27.5655 68.6316C28.6031 68.1984 29.4772 68.0232 30.1931 67.9573C30.6908 67.9114 31.142 68.2086 31.214 68.63L31.2163 68.6432C31.2909 69.08 30.9303 69.481 30.4161 69.5413C29.8314 69.61 29.1494 69.7671 28.3756 70.0902C27.2406 70.564 26.2829 71.345 25.8108 72.4677C25.548 73.122 25.4772 73.8866 25.7409 74.6204L31.5448 72.1972C31.8866 72.0544 32.2999 72.1744 32.4677 72.4652C32.6356 72.7558 32.4944 73.1073 32.1526 73.25L26.0908 75.7808C26.2041 76.033 26.3177 76.2851 26.4065 76.4387C26.5204 76.6361 26.6343 76.8334 26.8121 77.086L32.8867 74.5496C33.2358 74.404 33.6577 74.5264 33.8291 74.8232C34.0005 75.1201 33.8564 75.4789 33.5074 75.6246L27.6906 78.0531C28.2385 78.6139 28.916 79.0115 29.6084 79.2126C30.9802 79.5925 32.1893 79.4689 33.479 78.9305C34.2653 78.6022 34.903 78.1885 35.379 77.7996C35.7707 77.4797 36.4022 77.5207 36.7312 77.8882Z" fill="white"/>
<path d="M36.7298 43.7265C36.9109 43.9758 36.8592 44.2993 36.6061 44.4983C36.1097 44.8886 35.3192 45.3448 34.3563 45.6522C32.9479 46.1018 31.3845 46.1452 29.9756 45.601C29.0952 45.2609 28.2894 44.6485 27.7208 43.8569L26.8887 44.1226C26.6058 44.2128 26.2904 44.0911 26.1843 43.8505L26.1762 43.8322C26.0701 43.5916 26.2133 43.3235 26.4961 43.2332L27.179 43.0152C27.0695 42.8224 26.9921 42.7022 26.9441 42.5933C26.864 42.4118 26.7891 42.1873 26.7278 41.9376L26.0236 42.1624C25.7407 42.2527 25.4254 42.1308 25.3192 41.8903C25.2131 41.6498 25.3563 41.3816 25.6392 41.2913L26.4928 41.0189C26.3589 40.1092 26.5001 39.2152 26.9 38.4665C27.5799 37.1935 28.8601 36.288 30.3325 35.8181C31.1909 35.5441 31.8969 35.4631 32.4681 35.4579C32.8652 35.4543 33.1945 35.7185 33.213 36.0558L33.2137 36.0665C33.233 36.4162 32.9119 36.7091 32.5005 36.723C32.0327 36.7389 31.4801 36.8183 30.8398 37.0226C29.9009 37.3223 29.074 37.8761 28.5996 38.7315C28.3328 39.2307 28.2077 39.8297 28.3492 40.4263L33.1509 38.8937C33.4338 38.8035 33.7491 38.9252 33.8553 39.1658C33.9614 39.4063 33.8182 39.6745 33.5354 39.7648L28.5203 41.3655C28.587 41.5719 28.6538 41.7784 28.7099 41.9055C28.782 42.0688 28.8541 42.2321 28.9715 42.4431L33.9972 40.839C34.286 40.7468 34.608 40.8711 34.7164 41.1167C34.8247 41.3623 34.6785 41.6361 34.3897 41.7283L29.5774 43.2643C29.9591 43.7429 30.4581 44.1012 30.9864 44.3052C32.035 44.6951 33.0007 44.6768 34.0678 44.3362C34.7181 44.1286 35.2593 43.8438 35.6702 43.568C36.0085 43.3411 36.5033 43.4149 36.7298 43.7265Z" fill="#D3D3D3"/>
<path d="M81.2946 30.0786L82.8267 29.419L84.3342 30.1185C84.5059 30.1981 84.7105 30.0758 84.6804 29.9114L84.4161 28.4684L85.6642 27.4652C85.8063 27.3509 85.7326 27.1477 85.5395 27.1212L83.8442 26.889L83.1081 25.5695C83.0242 25.4192 82.774 25.4159 82.6848 25.5639L81.9011 26.8635L80.1981 27.0511C80.0042 27.0725 79.9232 27.2738 80.0611 27.3918L81.2722 28.4271L80.9559 29.8626C80.9199 30.0261 81.12 30.1537 81.2946 30.0786Z" fill="#FFBE55"/>
<path d="M50.5443 3.59566L48.9609 3.73232L48.4209 1.59002L46.0766 1.54702L45.3643 0L44.4434 0.306624L45.3962 2.37574L47.6176 2.41651L48.1794 4.64514L50.5621 4.43944L50.5443 3.59566Z" fill="#FFBE55"/>
<path d="M83.08 35.6993L84.7742 36.1745C84.7742 36.1745 87.4601 35.4343 87.7245 34.9688C87.989 34.5033 88.0638 33.3737 88.4459 33.3429C88.828 33.3121 89.5666 33.4178 89.7425 34.1909C89.8703 34.752 88.9037 36.3739 89.0548 36.5465C89.1493 36.6546 90.1137 36.9514 90.8224 37.1585C91.2885 37.2946 91.6248 37.6434 91.6963 38.0642L91.6965 38.0654C91.7448 38.3498 91.5553 38.6269 91.2424 38.7297L90.7551 38.8897L90.9106 39.3177C91.0263 39.6363 90.8211 39.9787 90.4511 40.0842L90.0741 40.1917L90.1946 40.4524C90.3498 40.788 90.1311 41.1689 89.7257 41.2692L89.3962 41.3506L89.4098 41.4255C89.4663 41.737 89.2369 42.0368 88.8814 42.116L88.5541 42.189L84.0426 40.9227C83.6199 40.8041 83.2308 40.612 82.8989 40.358L81.4005 39.6855C81.2395 39.6133 81.1654 39.4496 81.2262 39.3007L82.6152 35.899C82.6823 35.7348 82.8893 35.6458 83.08 35.6993Z" fill="#FFCE88"/>
<path d="M28.7664 31.0566C28.7446 31.0036 28.214 30.232 27.529 29.3939C24.3432 25.4906 19.6191 21.7285 14.0791 21.8698L14.0752 21.8411C16.5799 21.6075 19.0341 22.1747 21.1885 23.1858C24.7426 24.8152 28.2056 27.9202 30.1002 30.3069L28.7664 31.0566Z" fill="#FFBE55"/>
<path d="M65.1993 26.1862C65.1993 26.1862 65.362 25.9069 65.3521 25.2617C65.3399 24.4639 65.1519 23.2592 65.1144 23.1528C65.0465 22.9602 68.0811 22.1513 68.0811 22.1513C68.0811 22.1513 72.9503 21.9394 73.6749 21.4772C74.3996 21.015 75.0094 20.8246 74.6714 21.3039C74.0599 22.1705 72.6331 23.4417 72.3161 23.615C71.999 23.7883 68.217 24.5973 68.1491 24.5973C68.0811 24.5973 68.1038 26.6195 68.1038 26.6195L65.1993 26.1862Z" fill="#F7A491"/>
<path d="M68.3591 25.3243C68.3591 25.3243 65.2065 24.8686 65.149 25.1365C63.875 31.0685 63.6591 33.0292 63.5183 33.0908C63.0385 33.3006 56.1765 28.1791 55.0426 27.844C54.5002 27.6836 53.91 27.7104 53.3442 27.7245C51.9953 27.7584 52.4503 27.7309 51.7391 27.7607L51.74 27.762C51.7014 27.7641 51.6797 27.7655 51.6797 27.7655L51.687 28.8444C53.2068 30.0073 56.686 47.6212 56.9789 47.6095C57.3063 47.5965 64.1831 49.0683 64.0619 48.5756C64.0422 48.4955 59.3997 45.2647 58.0831 40.602C57.6411 39.0367 57.4229 37.3512 57.1833 35.8761C58.7111 36.5277 64.6787 39.0253 65.6245 38.6953C68.5666 37.6688 68.3591 25.3243 68.3591 25.3243Z" fill="#D3D3D3"/>
<path d="M80.2012 56.5986C80.2012 56.5986 86.5993 60.8607 86.8126 61.6162C87.1201 62.7047 92.9789 61.2738 91.5661 61.0524C91.241 61.0014 90.2008 60.7769 90.1152 60.7381C89.6578 60.5302 83.9648 54.6959 83.9648 54.6959L80.2012 56.5986Z" fill="#F7A491"/>
<path d="M94.3129 61.0524L90.228 60.7694C90.228 60.7694 89.0603 61.5913 86.8162 61.6298C86.8162 61.6298 86.4574 62.5014 86.628 63.5205C86.6575 63.6964 86.6921 64.2276 86.9005 64.2155C87.6553 64.1719 89.6661 63.7464 91.9572 63.3568C91.9572 63.3568 95.0364 62.8022 96.8148 61.8974C98.5931 60.9927 94.3129 61.0524 94.3129 61.0524Z" fill="#1E0F00"/>
<path d="M51.5332 45.9074C51.5332 45.9074 56.2184 46.577 61.4002 45.5461C67.3962 44.3531 74.0262 43.2502 75.9688 44.2107C77.5323 44.9838 87.2968 57.5314 87.2968 57.5314L83.5261 59.8715L72.7747 49.6331C72.7747 49.6331 59.0578 53.9371 55.9772 53.4602C48.9609 52.3738 48.8612 47.6085 51.5332 45.9074Z" fill="#AEE0FF"/>
<path d="M56.6554 43.3755L61.3433 48.1133L52.6469 50.3667L51.5332 45.9073L56.6554 43.3755Z" fill="#AEE0FF"/>
<path d="M66.183 65.0166C66.183 65.0166 65.898 71.5974 65.7213 72.712C65.5455 73.8213 69.0052 77.1636 68.5631 76.0011C68.4615 75.7336 68.1993 74.8485 68.199 74.766C68.1968 74.3249 69.4821 66.8177 69.4821 66.8177L66.183 65.0166Z" fill="#F7A491"/>
<path d="M69.8683 78.0568L68.2202 74.8655C68.2202 74.8655 66.8151 74.3823 65.709 72.7213C65.709 72.7213 64.6368 72.867 63.6633 73.4788C63.4953 73.5844 62.351 74.2961 62.4307 74.4602C62.7242 75.0645 64.2824 76.3591 65.9863 77.7729C65.9863 77.7729 68.4013 79.4296 70.1825 80.3305C71.9636 81.2313 69.8683 78.0568 69.8683 78.0568Z" fill="#1E0F00"/>
<path d="M73.7771 52.0422C72.1385 50.1842 58.9159 48.4197 58.9159 48.4197L55.229 42.3932L47.0762 46.6689C47.0762 46.6689 47.8911 52.186 48.5029 53.6601C49.3182 55.6246 54.7973 55.7247 58.1438 55.6954C61.2228 55.6686 66.8469 56.2024 66.8469 56.2024L64.9446 70.4738C64.9446 70.4738 68.6837 71.1975 69.7345 71.0805C69.8533 71.0672 75.8153 54.3534 73.7771 52.0422Z" fill="#CCE9FF"/>
<path d="M51.7243 27.7753L47.1243 27.9897C47.1243 27.9897 47.0191 28.0212 46.9871 28.0262C46.6123 28.0852 46.9527 39.4849 47.2869 43.7426C47.6213 48.0003 48.2989 49.7889 48.2989 49.7889C48.2989 49.7889 54.5374 48.8469 56.4518 48.215C57.2464 47.9528 59.1694 45.9081 59.1694 45.9081C59.1694 45.9081 57.2048 43.6619 56.2153 40.0133C55.452 37.1993 54.5106 32.2109 53.972 31.1697C52.7348 28.7784 51.7243 27.7753 51.7243 27.7753Z" fill="white"/>
<path d="M47.2556 24.5398L47.125 27.9936C47.125 27.9936 50.1026 32.3567 51.6314 31.7488C52.9142 31.2385 51.7755 27.9196 51.7755 27.9196C51.7755 27.9196 51.5534 27.1586 51.2453 26.2843C51.03 25.6734 50.8511 25.0117 50.8643 24.5261C50.8965 23.3457 47.2556 24.5398 47.2556 24.5398Z" fill="#F7A491"/>
<path d="M50.8122 16.6622C50.8122 16.6622 52.3295 18.6075 52.4428 20.2446C52.556 21.8817 52.1483 22.9987 52.1483 22.9987L47.2793 18.0489L50.8122 16.6622Z" fill="#1E0F00"/>
<path d="M52.9472 19.9096C53.0158 20.4828 52.7539 20.975 52.3621 21.009C51.9702 21.043 51.5971 20.6059 51.5285 20.0327C51.4599 19.4595 51.7218 18.9673 52.1136 18.9333C52.5054 18.8993 52.8786 19.3364 52.9472 19.9096Z" fill="#F48C7F"/>
<path d="M45.7044 18.842C45.5929 18.8218 45.6037 23.5871 47.2277 24.7085C48.8519 25.8299 51.6786 25.9283 52.504 24.7988C53.417 23.5494 52.5485 18.5282 50.133 17.4617C47.7175 16.3952 45.7044 18.842 45.7044 18.842Z" fill="#F7A491"/>
<path d="M45.293 15.8873C44.0531 16.8119 43.4529 17.4872 42.614 19.1308C41.5825 21.1518 43.629 23.2456 45.345 24.0777C47.0611 24.9098 47.2067 25.9313 47.2067 25.9313L47.2747 25.2957C47.3482 24.8021 47.1727 24.5205 47.0086 24.222C46.8624 23.9564 46.3933 23.0465 46.2102 22.8063C45.7274 22.173 45.6322 22.0359 45.8705 21.4341C46.054 20.9707 45.8416 19.9493 46.1253 19.1855L48.4352 18.7618C48.4352 18.7618 49.8807 18.4663 50.6107 17.7501C52.7066 15.6938 48.5628 13.4008 45.293 15.8873Z" fill="#1E0F00"/>
<path d="M46.4195 21.9554C46.7039 22.4783 46.6449 23.0163 46.2875 23.157C45.9301 23.2977 45.4099 22.9879 45.1253 22.465C44.8409 21.9421 44.8999 21.4041 45.2573 21.2634C45.6147 21.1227 46.135 21.4326 46.4195 21.9554Z" fill="#F7A491"/>
<path d="M15.3087 23.6629L14.9339 21.4677L16.8479 19.9607C17.0659 19.7891 16.9578 19.4794 16.665 19.4366L14.0942 19.0614L13.0004 17.0477C12.8758 16.8183 12.496 16.8101 12.3578 17.0337L11.1437 18.9969L8.55373 19.2594C8.2588 19.2893 8.13216 19.5939 8.33943 19.7748L10.1598 21.3634L9.65302 23.5393C9.59528 23.7871 9.89682 23.9837 10.1633 23.8719L12.5024 22.8905L14.7791 23.9728C15.0384 24.0961 15.3514 23.913 15.3087 23.6629Z" fill="#FFBE55"/>
<path d="M30.6791 8.81035C30.9417 9.72759 31.4151 11.1773 31.4151 11.1773C31.3776 11.5758 31.2392 13.2344 31.0745 15.2672L34.588 14.0714C34.588 14.0714 34.5459 10.7591 34.7027 10.5565C34.8352 10.385 35.058 10.599 36.1349 9.28837C36.4458 8.91005 36.504 8.23412 36.504 8.23412C36.504 8.23412 36.5681 7.4022 36.3483 7.32481C36.1287 7.24722 35.8767 7.37154 35.7972 7.51526C35.7176 7.65905 35.7381 7.99382 35.6585 8.13761C35.579 8.28139 35.0708 8.45462 34.8568 8.4456C34.6428 8.43671 34.8835 5.98469 34.8835 5.98469C34.8835 5.98469 35.003 5.28943 35.0636 5.06188C35.1153 4.86791 35.3229 4.29914 35.3229 4.29914C35.3229 4.29914 35.5667 3.47393 35.2653 3.41092C35.0877 3.37376 34.6351 4.04426 34.3248 4.75573C33.9907 5.52207 33.8013 6.33473 33.7058 6.32374C33.4814 6.2981 33.6003 4.95377 33.6003 4.95377C33.6003 4.95377 33.8239 4.33794 33.8182 4.04731C34.0293 3.69131 34.1694 3.03071 33.7977 2.97604C33.7291 2.966 33.2392 3.80512 33.2392 3.80512C33.2392 3.80512 33.0467 4.39593 32.9344 4.67197C32.7364 5.15901 32.7065 5.92806 32.6033 6.26717C32.5173 6.54925 32.4397 6.43334 32.4043 6.44514C32.3769 6.4543 32.4249 6.0652 32.4796 5.53034C32.5072 5.26095 32.4708 4.95025 32.5595 4.64341C32.6415 4.35937 32.6885 3.9527 32.7098 3.70711C32.77 3.01172 32.2552 3.08293 32.0773 3.71864C32.0094 3.96091 31.9381 4.22515 31.8671 4.49312C31.5905 5.5355 31.5984 6.53969 31.4662 6.5481C31.2947 6.55895 31.4076 4.7305 31.4076 4.7305C31.4076 4.7305 31.1442 3.71844 30.8827 4.65772C30.5794 5.74765 30.611 6.63634 30.6151 6.67554C30.6428 6.94168 30.4166 7.89311 30.6791 8.81035Z" fill="#F8A492"/>
<path d="M47.1185 27.9954C47.1185 27.9954 42.5645 27.813 41.3879 27.3603C40.6746 27.0859 34.8149 23.0705 34.8149 23.0705L34.8806 12.3194L30.7595 12.0529C30.7595 12.0529 28.6227 23.9362 29.3628 25.2371C30.1272 26.5804 38.7045 32.1104 40.4198 34.5101C41.4081 35.8926 43.469 54.6942 43.7809 54.8636C46.0003 55.8458 52.8539 56.8268 52.6924 56.231C48.231 39.7642 47.1185 27.9954 47.1185 27.9954Z" fill="#D3D3D3"/>
<path d="M81.1863 11.6679C81.1863 18.1051 75.0502 23.3235 67.4809 23.3235C59.9116 23.3235 53.7754 18.1051 53.7754 11.6679C53.7754 5.23072 59.9115 0.0123291 67.4809 0.0123291C75.0502 0.0123291 81.1863 5.23072 81.1863 11.6679Z" fill="#FFCE88"/>
<path d="M78.9819 11.668C78.9819 17.0696 73.8329 21.4485 67.4813 21.4485C61.1295 21.4485 55.9805 17.0696 55.9805 11.668C55.9805 6.26645 61.1295 1.88757 67.4813 1.88757C73.8328 1.88757 78.9819 6.26645 78.9819 11.668Z" fill="#FFBE55"/>
<path d="M63.9201 17.9478L64.5746 16.4127C63.7723 16.1303 63.028 15.753 62.4466 15.3664C61.9614 15.0437 61.8544 14.4561 62.2015 14.0233L62.2435 13.9712C62.626 13.4944 63.4067 13.3916 63.9355 13.7534C64.4745 14.1221 65.1242 14.4615 65.8677 14.6909C66.9507 15.0247 67.8433 14.8977 68.1188 14.2514C68.3807 13.6375 67.9379 13.0622 66.7042 12.2247C64.9193 11.0162 63.8767 9.78067 64.5449 8.21335C65.1512 6.79144 66.8044 6.03976 68.982 6.32733L69.6365 4.79236L71.4985 5.36648L70.8923 6.78832C71.5719 7.02767 72.1063 7.2814 72.5353 7.5356C73.0595 7.84629 73.1881 8.45996 72.8277 8.90881C72.4552 9.37279 71.7041 9.483 71.172 9.14992C70.7732 8.90026 70.2593 8.64077 69.5887 8.43398C68.3537 8.05322 67.762 8.38264 67.569 8.83502C67.3417 9.36824 67.862 9.91252 69.2566 10.9276C71.2282 12.3033 71.7612 13.4732 71.1413 14.9274C70.5281 16.3655 68.8076 17.2244 66.4849 16.8738L65.7822 18.522L63.9201 17.9478Z" fill="white"/>
<path d="M67.1299 23.384C67.1299 23.384 68.398 22.9218 68.7377 22.8255C69.0774 22.7292 70.1646 22.5558 70.1646 22.5558C70.1646 22.5558 71.8517 21.0825 72.2821 21.044C72.7123 21.0055 71.2969 22.6521 71.2969 22.6521L70.708 23.1337C70.708 23.1337 71.6592 22.4403 71.8403 22.344C72.0215 22.2477 73.4483 20.4951 73.8107 20.6107C74.1731 20.7262 73.1992 21.9588 72.7236 22.6137C72.248 23.2684 70.0738 23.6729 70.0738 23.6729L67.1299 23.384Z" fill="#F7A491"/>
<path d="M82.2872 28.142C82.2847 28.4309 74.583 28.5105 72.9867 34.3185L71.96 34.0316C74.2474 28.1275 81.8731 28.3653 82.2464 28.148C82.2513 28.1449 82.2537 28.1415 82.2533 28.142H82.2872Z" fill="#FFBE55"/>
<path d="M114.694 65.5058L114.959 64.7313C116.359 64.5064 117.565 63.6957 117.962 62.534C118.089 62.1623 118.176 61.848 118.241 61.4273L116.365 60.9636L116.699 59.9877L118.393 60.4064C118.46 59.9192 118.557 59.2882 118.764 58.6841C119.389 56.8563 121.272 56.0284 123.293 56.5281C123.87 56.6707 124.315 56.8555 124.646 57.0451C124.946 57.2172 125.025 57.5644 124.827 57.8225C124.629 58.0818 124.224 58.1559 123.914 57.9938C123.656 57.8591 123.329 57.7295 122.917 57.6278C121.497 57.2766 120.628 57.969 120.252 59.0687C120.025 59.7347 119.964 60.2574 119.904 60.7801L122.527 61.4285L122.193 62.4042L119.716 61.792C119.57 62.3941 119.405 62.9917 119.051 63.5088C118.623 64.1253 117.995 64.5749 117.222 64.871L117.211 64.902L121.998 66.0852C122.352 66.1727 122.556 66.4876 122.453 66.7885L122.439 66.8294C122.336 67.1304 121.966 67.3034 121.612 67.2159L114.694 65.5058Z" fill="#FFBE55"/>
</svg>
