<svg width="115" height="90" viewBox="0 0 115 90" fill="none" xmlns="http://www.w3.org/2000/svg">
<path d="M107.914 42.6821C111.763 39.4067 111.763 34.0962 107.914 30.8209C104.064 27.5455 97.8232 27.5455 93.9738 30.8209C90.1245 34.0962 90.1245 39.4067 93.9739 42.6821C97.8232 45.9575 104.064 45.9575 107.914 42.6821Z" fill="#CCE9FB"/>
<path d="M98.4832 37.7166H96.5088V40.5854H98.4832V37.7166Z" fill="white"/>
<path d="M101.924 34.8477H99.9492V40.592H101.924V34.8477Z" fill="white"/>
<path d="M105.371 33.1611H103.396V40.5854H105.371V33.1611Z" fill="white"/>
<path d="M28.9968 76.3365C32.8461 73.0611 32.8462 67.7506 28.9968 64.4752C25.1474 61.1998 18.9063 61.1998 15.0569 64.4752C11.2075 67.7506 11.2075 73.0611 15.0569 76.3365C18.9063 79.6119 25.1474 79.6119 28.9968 76.3365Z" fill="#CCE9FB"/>
<path d="M22.0268 74.9875C25.0004 74.9875 27.411 72.9364 27.411 70.4061C27.411 67.8759 25.0004 65.8247 22.0268 65.8247C19.0532 65.8247 16.6426 67.8759 16.6426 70.4061C16.6426 72.9364 19.0532 74.9875 22.0268 74.9875Z" fill="white"/>
<path d="M22.0268 72.6741C20.5612 72.6741 19.3613 71.6596 19.3613 70.4061C19.3613 69.1591 20.5536 68.1382 22.0268 68.1382C23.4925 68.1382 24.6924 69.1526 24.6924 70.4061C24.6924 71.6532 23.5001 72.6741 22.0268 72.6741Z" fill="#CCE9FB"/>
<path d="M23.5833 66.5615L23.1125 64.9331C23.0745 64.8103 22.9454 64.7263 22.8011 64.7263H22.1176H21.9354H21.2519C21.1076 64.7263 20.9785 64.8103 20.9406 64.9331L20.4697 66.5615L22.0265 66.4969L23.5833 66.5615Z" fill="white"/>
<path d="M19.9156 66.7617L18.2297 65.8959C18.1006 65.8313 17.9411 65.8507 17.8348 65.9347L17.3488 66.3482L17.2197 66.458L16.7337 66.8716C16.6273 66.9621 16.6121 67.0977 16.6881 67.2076L17.7057 68.6421L18.7537 67.6599L19.9156 66.7617Z" fill="white"/>
<path d="M17.4848 69.1138L15.5711 69.5144C15.4268 69.5467 15.3281 69.6566 15.3281 69.7794V70.3609V70.516V71.0976C15.3281 71.2204 15.4268 71.3302 15.5711 71.3625L17.4848 71.7632L17.4089 70.4385L17.4848 69.1138Z" fill="white"/>
<path d="M17.721 72.2346L16.7034 73.6691C16.6275 73.779 16.6502 73.9147 16.749 74.0051L17.235 74.4187L17.3641 74.5285L17.8501 74.9421C17.9564 75.0325 18.1159 75.0455 18.245 74.9809L19.9309 74.115L18.7766 73.2233L17.721 72.2346Z" fill="white"/>
<path d="M20.4854 74.2961L20.9562 75.9243C20.9942 76.0471 21.1233 76.1311 21.2675 76.1311H21.951H22.1333H22.8167C22.961 76.1311 23.0901 76.0471 23.1281 75.9243L23.5989 74.2961L22.0421 74.3608L20.4854 74.2961Z" fill="white"/>
<path d="M24.1523 74.0957L25.8382 74.9615C25.9673 75.0262 26.1268 75.0068 26.2331 74.9228L26.7191 74.5092L26.8482 74.3994L27.3343 73.9858C27.4406 73.8954 27.4558 73.7597 27.3798 73.6498L26.3622 72.2153L25.3142 73.1975L24.1523 74.0957Z" fill="white"/>
<path d="M26.583 71.75L28.4967 71.3494C28.641 71.3171 28.7397 71.2072 28.7397 71.0845V70.5029V70.3479V69.7664C28.7397 69.6436 28.641 69.5337 28.4967 69.5014L26.583 69.1008L26.6589 70.4254L26.583 71.75Z" fill="white"/>
<path d="M26.3398 68.6292L27.3574 67.1946C27.4333 67.0848 27.4105 66.9491 27.3118 66.8586L26.8258 66.4451L26.6967 66.3352L26.2107 65.9217C26.1043 65.8312 25.9449 65.8183 25.8158 65.8829L24.1299 66.7488L25.2842 67.6405L26.3398 68.6292Z" fill="white"/>
<path d="M103.54 75.8661C107.389 72.5907 107.389 67.2803 103.54 64.0049C99.6903 60.7296 93.4492 60.7295 89.5998 64.0049C85.7504 67.2803 85.7504 72.5907 89.5998 75.8661C93.4492 79.1414 99.6903 79.1414 103.54 75.8661Z" fill="#CCE9FB"/>
<path d="M98.901 68.4155C98.901 69.514 97.8606 70.3992 96.5697 70.3992C95.2787 70.3992 94.2383 69.514 94.2383 68.4155C94.2383 67.3171 95.2787 66.4319 96.5697 66.4319C97.8606 66.4383 98.901 67.3236 98.901 68.4155Z" fill="white"/>
<path d="M100.868 73.8691H92.2715C92.6664 72.1568 94.4434 70.8645 96.5697 70.8645C98.7037 70.8645 100.473 72.1568 100.868 73.8691Z" fill="white"/>
<path d="M20.9098 45.1C24.7592 41.8246 24.7592 36.5142 20.9098 33.2389C17.0604 29.9635 10.8193 29.9635 6.96995 33.2389C3.12055 36.5142 3.12055 41.8246 6.96995 45.1C10.8193 48.3753 17.0604 48.3753 20.9098 45.1Z" fill="#CCE9FB"/>
<path d="M13.8571 34.6124L15.489 37.3481L19.1488 37.7818L16.4989 39.917L17.1291 42.9196L13.8571 41.505L10.5852 42.9196L11.2072 39.917L8.56543 37.7818L12.2252 37.3481L13.8571 34.6124Z" fill="white"/>
<path d="M58.2256 89.3004C64.5202 89.3004 69.623 84.9614 69.623 79.6089C69.623 74.2564 64.5202 69.9174 58.2256 69.9174C51.9309 69.9174 46.8281 74.2564 46.8281 79.6089C46.8281 84.9614 51.9309 89.3004 58.2256 89.3004Z" fill="#0E538D"/>
<path d="M84.2767 46.2955C84.2767 52.0874 81.6871 57.3516 77.4393 61.2932C75.251 63.3194 73.5171 65.6518 72.3359 68.1666C71.3515 70.2645 70.7382 72.4861 70.564 74.7729C70.5262 75.229 70.511 75.685 70.511 76.1476H46.7656C46.7656 75.6915 46.7504 75.229 46.7126 74.7729C46.3567 69.841 44.0775 65.1176 40.0872 61.5343C35.9983 57.8402 33.3633 52.9279 33.0302 47.5008C32.9772 46.7776 32.9772 46.0545 33.015 45.3182C33.5981 33.6237 44.9786 24.255 58.5777 24.229C61.5535 24.2224 64.4232 24.6524 67.081 25.4603C77.091 28.4638 84.2767 36.6597 84.2767 46.2955Z" fill="#FFBE55"/>
<path d="M70.4371 76.1476H46.8281V81.6857H70.4371V76.1476Z" fill="#0E538D"/>
<path d="M70.7922 78.2242H46.4729C45.3288 78.2242 44.3857 77.4487 44.3857 76.4937C44.3857 75.545 45.3211 74.7631 46.4729 74.7631H70.7922C71.9362 74.7631 72.8793 75.5386 72.8793 76.4937C72.8716 77.4487 71.9362 78.2242 70.7922 78.2242Z" fill="#2B94F3"/>
<path d="M70.7922 83.7623H46.4729C45.3288 83.7623 44.3857 82.9868 44.3857 82.0317C44.3857 81.0831 45.3211 80.3011 46.4729 80.3011H70.7922C71.9362 80.3011 72.8793 81.0767 72.8793 82.0317C72.8716 82.9804 71.9362 83.7623 70.7922 83.7623Z" fill="#2B94F3"/>
<path d="M75.3216 40.3643C75.3216 50.5703 65.4425 58.8412 53.2613 58.8412C44.2054 58.8412 36.4226 54.2683 33.0304 47.7346C32.9771 47.0257 32.9771 46.3167 33.0152 45.595C33.6022 34.1308 45.0592 24.9466 58.7497 24.9211C61.7454 24.9147 64.6345 25.3362 67.3101 26.1282C72.2039 29.5132 75.3216 34.6354 75.3216 40.3643Z" fill="#FFEB57"/>
<path d="M57.4887 17.9984L50.085 4.57436L66.367 0L57.4887 17.9984Z" fill="#FFBE55"/>
<path d="M41.9442 21.7538L31.3783 15.2296L28.1045 23.5365L41.9442 21.7538Z" fill="#FFBE55"/>
<path d="M74.5078 19.3831L87.5334 15.5845L83.4426 10.3838L74.5078 19.3831Z" fill="#FFBE55"/>
<path d="M48.457 46.3508C48.457 46.3508 48.9811 53.6716 59.4097 53.6716C69.8384 53.6716 72.6135 45.323 66.1924 45.0059C61.1589 44.7584 59.0629 49.3387 59.0629 51.4322C59.0629 53.5257 58.989 70.6097 58.989 70.6097" stroke="white" stroke-width="3" stroke-miterlimit="10" stroke-linecap="round"/>
</svg>
